<svg xmlns="http://www.w3.org/2000/svg" fill="none" viewBox="0 0 96 96" id="Apache-Flink-Icon--Streamline-Svg-Logos" height="24" width="24">
  <desc>
    Apache Flink Icon Streamline Icon: https://streamlinehq.com
  </desc>
  <path fill="#e65270" d="M61.0173 94.1284c-1.248-.0157-2.4932-.0194-3.7403-.0194l-3.219.0028s-9.2044-.0037-13.605-.0037c-.69 0-1.3836.0028-2.0754.0046-.6918.0019-1.3835.0047-2.0772.0047-.4326 0-.8652-.001-1.2968-.0037-2.6177-.0157-5.1201-.3302-7.4362-.9372-9.2265-2.4138-16.2116-7.8872-20.76539-16.2651-2.18234-4.016-3.42293-8.5089-3.68489-13.3495-.11621-2.1528-.00645-4.3591.32745-6.5562.03966-.262.08762-.524.13466-.7878l.10608-.5995.17986.1771c.095.0941.12452.1919.14573.2656.0904.2924.17341.5894.25827.8837.17525.6134.35788 1.2479.57187 1.8567C6.41 63.2769 8.79249 67.4691 12.1241 71.6244c.1319.1641.2306.3458.2878.522 1.1299 3.4783 3.0936 6.4825 5.8349 8.9378 2.6666 2.3871 5.8635 4.1747 9.5152 5.323-2.3419-1.0017-4.5104-2.2828-6.4603-3.8204-3.1794-2.508-5.4724-5.5767-6.8099-9.1223-.1337-.3561-.2462-.7859-.0645-1.2618.059-.1624.1014-.3302.1457-.499.0286-.1162.0572-.2325.0941-.3478.7204-2.3548 1.8143-4.2014 3.3436-5.6421 1.426-1.343 3.2412-2.3253 5.5508-3.0042 2.1565-.6346 4.4071-.9205 6.583-1.1972l.9335-.1199c1.2175-.1596 2.4535-.3478 3.6461-.5322l.7185-.1107c.2675-.0406.5332-.0987.8089-.1587l.6706-.1402-.1762.2998c-.0138.0258-.0249.047-.0442.0692-1.1309 1.2655-2.0781 2.6721-2.8188 4.1857-.0618.1282-.1965.2463-.3265.2878-.1605.0526-.3201.1042-.4797.1577-.5082.1706-1.0321.3422-1.5652.4483-.5737.1144-1.1613.1974-1.7304.2767-.4557.0646-.9104.1282-1.3642.2112-1.5238.2712-2.7044.761-3.5954 1.509.1955-.047.3975-.0765.5958-.1051.2758-.0397.5599-.0821.82-.1716 1.4048-.4889 2.947-.7158 4.8545-.7158l.2573.001c.3413.0037.6835.0193 1.0294.0359l.6706.0277-.0508.1651c-1.3669 4.4689-1.3282 8.8539.1098 13.0581-.6014-2.8511-.7112-5.4992-.3385-8.0588.5691-3.9118 2.293-7.2831 5.1247-10.0198 1.9084-1.8456 4.3047-3.3952 7.3218-4.7345 2.6205-1.165 5.3507-1.8641 7.9213-2.4821l.4861-.119c1.8337-.4409 3.731-.8965 5.5675-1.4361 2.7551-.8071 5.1496-2.1344 7.117-3.9515.2942-.2721.63-.5811.8938-.9224 1.8789-2.435 4.0695-4.1626 6.6946-5.2824.0756-.0323.1614-.1125.2158-.2038.8597-1.402 1.8899-2.4342 3.1508-3.1582.2814-.1615.5608-.2426.8329-.2426.345 0 .69.1319 1.0266.3883.1273.0978.2435.2001.3459.3044.4418.4436.7951.9897 1.117 1.7147.0397.0867.0757.1143.1725.1263.321.0425.6503.0858.9786.1504 5.3636 1.0635 9.0965 5.1883 9.7449 10.7687.0175.1485.0286.2988.0415.4483.0277.3542.0572.7194.1624 1.0487.1337.416.3329.8265.5294 1.2185.0849.1743.1734.3523.2537.5303.0691.1531.142.3044.2139.4557.1707.3588.3441.725.4898 1.1004.2214.5728.2481 1.1649.0775 1.7599-.0738.2564-.2287.2942-.3154.2942-.0646 0-.1347-.0221-.2067-.0664-.1475-.095-.2859-.2002-.4224-.309-.0646-.0535-.1319-.1024-.1983-.1522-.0738-.0572-.1457-.1135-.2177-.1734-.1734-.1347-.333-.2657-.5138-.3643-.0645-.036-.1328-.0563-.1983-.0563-.0682 0-.1337.0203-.1946.0599l.2527.226c.4511.4003.9021.8016 1.3439 1.2083.0932.0849.155.2417.1467.369-.0526.8375-.345 1.532-.8716 2.067-.6273.6346-1.2849.9427-2.009.9427-.1549 0-.3136-.0148-.4741-.0434-.0286.2814-.0894.3865-.3237.512-1.4814.8033-2.9258 1.1944-4.4136 1.1944l-.2324-.0018c-1.0137 0-2.0006.2878-3.1066.9048-.3818.2113-.7185.3561-1.0321.4391-.951.2527-1.9112.3477-2.78.3883.3726.0516.7618.0766 1.1797.0766.2665 0 .5414-.0111.8375-.0305l.1706-.0175c.1255-.012.2528-.0231.3745-.0231.1633 0 .2979.0203.4114.0674.7748.3173 1.533.701 2.2441 1.0644.1393.0719.2398.1014.3321.1014.0526 0 .1014-.0101.1549-.0295l.2076-.0775c.3883-.1466.7886-.2979 1.1723-.4676.9095-.4049 1.6953-.5958 2.4701-.5958.2076 0 .4142.0156.6208.0433.5303.072 1.1511.1937 1.7101.5377.2758.1698.6429.4529.677.9815.0018.0092.0194.0405.0627.0811.0683.0618.1384.1209.2103.1799.072.059.1457.1208.2149.1863.4335.3975.6245.9012.571 1.4979-.0176.167-.0544.5581-.3893.5581-.1005 0-.2195-.0369-.3855-.1209-.0683-.0359-.1328-.0645-.191-.0811.1642.0996.3229.2001.4788.3062.3698.2518.5506.6374.5331 1.1456-.0351 1.1068-1.2009 2.1547-2.3991 2.1547-.1421 0-.2832-.0176-.416-.0452-.3533-.0784-.7923-.226-1.057-.6854-.0083-.0129-.0388-.0332-.0452-.035l-.2039.0092c-.2398.0092-.487.0194-.7167.072l-.0673.0156c-.3902.0904-.7914.1799-1.2037.1799-.1651 0-.3182-.0148-.4676-.0434-.1836-.0341-.3653-.0793-.5516-.1254l-.1347-.0323c-.2121.6909-.5571 1.3393-1.0229 1.9315-1.0432 1.3273-2.4341 2.2616-4.2494 2.8566-1.3153.4335-2.7311.6502-4.2078.6502-.7758 0-1.5902-.0581-2.4194-.1761-3.2708-.4677-5.5536-2.246-6.7868-5.2843-.2085-.5092-.3478-1.0497-.4834-1.5736-.0655-.2527-.1328-.511-.2066-.7628-.3874-1.3181-.8753-2.4802-1.4933-3.5594-1.1225-1.9582-2.5098-3.3538-4.2429-4.266-1.3854-.7296-2.9018-1.0995-4.5049-1.0995-.6715 0-1.3734.0637-2.0882.1919-.1449.0258-.2887.0572-.4354.0885.5045.0231.9832.0508 1.4684.0978 2.2423.2269 4.2844.9159 6.0692 2.0467 2.4286 1.5413 3.9183 3.4562 4.5538 5.8525.356 1.3393.8624 2.673 1.5071 3.9653.3727.749.8468 1.616 1.5293 2.3484.9658 1.0321 2.2091 1.7377 3.9118 2.2164.4658.1319.9289.2749 1.3891.4225.2546.0821.4317.2582.5415.5423.2665.6918.3329 1.3965.1964 2.0929-.2001 1.0229-.6862 1.9702-1.4878 2.8953-.6327.7296-1.4177 1.26-2.1777 1.7737-.3819.2555-.7407.5276-1.0672.8071-.2795.2398-.4243.5534-.4077.8836.0231.5442.0637.5645.1661.5645.0848 0 .2176-.0322.4344-.1023.1061-.0351.2112-.0775.3155-.1236l.6336-.2731c.3616-.1558.7213-.3126 1.0866-.4639.7895-.3284 1.5708-.4981 2.3197-.4981.4013 0 .8007.048 1.1908.1411 1.403.3358 2.3235 1.1687 2.7367 2.4775.1098.3542.095.6567-.0507.903-.0959.1633-.3164.2998-.499.3053-.1697 0-.3275-.1503-.4501-.2841-.0674-.0747-.0849-.1724-.0969-.2573-.0055-.0277-.0101-.0572-.0166-.083-.1245-.4658-.297-.7702-.5571-.974.4649.6318.6724 1.307.6346 2.0569-.0378.7443-.5959 1.2636-1.3568 1.2636-.0305 0-.0609-.0018-.095-.0037-.2887-.0175-.4732-.1734-.5027-.4298-.0203-.1771-.0203-.3597-.0212-.535 0-.0729 0-.1457-.0019-.2186-.0018-.0959-.0009-.1891 0-.285 0-.2048.0009-.3976-.024-.5876-.0572-.4095-.3007-.6862-.724-.8218-.0295-.0111-.0591-.0184-.0904-.0212.1282.0729.238.1734.3173.3191.1568.2906.2896.5553.3634.8403.1882.7573.0028 1.3476-.5359 1.7092-.2795.1854-.6374.2545-.9528.2988-.1282.0185-.2537.024-.38.024-.4714 0-.9326-.1107-1.3762-.2158l-.2269-.0545c-.4215-.0959-.7942-.1457-1.153-.1466-.3062 0-.6254.059-.9334.1162l-.1421.0258c-2.3363.4206-4.4375.6245-6.4188.6245l-.3486.0138Z"></path>
  <path fill="#430a1d" d="M80.0332 66.8632s-3.4441 4.1101-9.2957 1.7553c-5.359-2.1593-3.4045-8.1021-3.4045-8.1021s.9492 3.6858 3.7227 5.0823c4.0151 2.0227 8.9775 1.2645 8.9775 1.2645Z" opacity=".2"></path>
  <path fill="#430a1d" d="M63.0601 68.6227c.7462.7582.76 1.5339.9943 2.4793.4418 1.7783.9851 3.3224 2.1178 4.7853 1.0893 1.4057 2.3926 2.4 4.0759 3.0466 1.4583.5589 3.3326.3938 3.054 2.5651l-.4879 1.8281c-3.7273 0-7.2176-1.7008-8.6399-5.3995-1.2471-3.2449.2214-7.1659-3.5576-12.6522.3016.3699 2.0569 2.9516 2.4434 3.3473Z" opacity=".2"></path>
  <path fill="#2b2b2b" d="M61.5851 67.0107c.0572.2306.1079.4649.1605.6983-.1393-.1716-.2112-.3883-.1605-.6983Z" opacity=".2"></path>
  <path fill="url(#a)" d="M18.1629 81.1895C4.10502 79.8004 2.45028 65.8061 2.45028 65.8061s-.76372-6.4861 1.0183-12.8486C4.61325 64.5332 13.8997 72.5477 13.8997 72.5477s2.0403 6.5959 4.2632 8.6418Z"></path>
  <path fill="#2b2b2b" d="M14.6572 75.8599s-2.9488.2804-6.88181-4.4947c3.79191 6.8818 8.70721 7.022 8.70721 7.022l-1.8254-2.5273Z" opacity=".2"></path>
  <path fill="url(#b)" d="M22.2558 83.8945c-.737-12.9409 6.8606-6.9362 10.7826-13.7987 1.1022-6.0046 4.4098-9.803 4.4098-9.803s-23.526-4.4108-23.895 12.7445c.8191 3.7144 4.4191 7.3061 6.6743 9.2495-.4418-.9943-6.0581-16.4487 12.6467-15.1887-6.4566-.5497-15.7772 6.1947-11.3351 16.2983.4465.3256.7167.4981.7167.4981Z"></path>
  <path fill="#ffffff" d="M28.6153 65.2322c-4.8628 1.8281-13.1217 1.8198-10.7715 14.2285-.3763.2822-2.2552-2.6325-1.7866-2.3493-2.1621-11.0934 7.5496-10.4523 12.5581-11.8792Z" opacity=".2"></path>
  <path fill="#8b4fba" d="M34.7728 60.788c4.729-1.8706.8891 3.4331.2176 4.2816-1.5532 1.9629-5.4798 1.3246-7.5736 1.9795-1.2037.3763-6.0277 1.0837-7.6271 5.6523-.7111 2.0236-.9777 5.3322.5359 9.3584-.3754.2841-2.863-2.4406-2.3926-2.1602-3.9911-17.8304 14.8382-11.4301 16.8398-19.1116Z" opacity=".6"></path>
  <path fill="#f9e0e7" d="M81.7888 53.5072c.1291-.3542.3486-.807.6263-1.0745.0645.0304.1346.0341.1872.0673.4612-.2988 1.1889-.2592 1.7691-.2592.3459 0 .8523-.0959 1.1862.0342.487.189.4317.7019.6346 1.0902.3818.725 1.5597.7342 1.5634 1.759.0037.4824.1245 1.1363.0019 1.6086-.0932.3505-.4843.2435-.8228.2435-1.022 0-2.0431.0286-3.0678.0286l-1.4168-1.0561c-.3782.1208-.6733-.6724-.7259-.9418-.0839-.4436-.095-1.0589.0646-1.4998Z"></path>
  <path fill="#ffffff" d="M86.5154 54.9119c.1734-.0711.4299-.3487.5359-.512.0775-.1171.0563-.1918.2214-.1872.4326.012.4363.5958.4142.8975-.0259.3855-.1817.7397-.238 1.1188-.1402-.035-.2177-.2112-.3763-.2555-.1246-.0369-.3044-.0194-.4363-.0138-.191.0083-.4575.1374-.6309.0636l.51-1.1114Z"></path>
  <path fill="url(#c)" d="M30.4843 35.9453c.0646-.0747.0821-.0969.1015-.1181 1.877-1.7525 2.8713-3.9643 3.4063-6.4372.3514-1.6188-.0959-3.0466-.8255-4.4422-.0129-.023-.036-.0461-.0609-.0774-.1457.4556-.2786.903-.4335 1.3429-.381 1.0847-.8422 2.1344-1.5745 3.0328-.2924.3579-12.5554 7.1512-11.2926 22.196.0073.0932.023.1817.0359.2859.2269-.2112.4252-.4298.654-.6097.8163-.6382 1.758-1.045 2.7422-1.3199 1.7996-.5017 3.6102-.9629 5.4245-1.4066 2.0624-.5055 4.1378-.974 6.1292-1.7359 1.1262-.4298 2.1712-.9962 3.1711-1.6787 1.4878-1.0183 2.7736-2.2368 3.8804-3.648.6447-.8218.9454-1.4491 1.236-2.4148.1835.4953.0876 1.8807-.1891 2.7644-.2878.9122-.7729 1.7091-1.4057 2.4406.1513-.048.3173-.0729.4529-.1504 1.7543-.9998 3.3085-2.2312 4.456-3.9191.7692-1.1309 1.2378-2.3687 1.3033-3.7467.0009-.0194.0101-.0388.0157-.0692.3652 1.6907.3127 4.5685-1.593 6.6134.6734-.237 1.2831-.4759 1.9057-.6613.5156-.1531.8559-.4548 1.14-.9076 1.2508-1.9795 2.2875-4.0548 2.8483-6.3432.4344-1.7673.5424-3.5419.0563-5.3175-.5516-2.0071-1.7636-3.552-3.4128-4.7797-1.1456-.8532-2.4093-1.486-3.7356-2.0043-.0803-.0314-.1605-.06-.2398-.095-.013-.0047-.0194-.0194-.0692-.0748.4593.1264.8707.2334 1.2784.3542 1.901.5645 3.7208 1.3006 5.3331 2.4794 1.4389 1.0515 2.5403 2.3631 3.0909 4.0879.4916 1.5441.4492 3.1047.0959 4.6654-.5165 2.2764-1.5772 4.3029-2.8676 6.2223-.0397.0609-.0784.119-.1162.179-.0056.0083-.0046.0239-.012.0581.0535-.0203.0959-.0342.1346-.0544 2.7044-1.3827 5.1072-3.1509 7.0221-5.5269 1.8595-2.3059 3.2117-4.8738 3.8555-7.783.8089-3.671-.0775-6.9307-2.4554-9.8057-1.5025-1.8199-3.3611-3.1961-5.4171-4.3177-2.6536-1.4444-5.477-2.3889-8.4655-2.8234-1.699-.2481-3.3999-.2951-5.098.0314-.9334.1771-1.5385.4224-2.5725 1.0201.131-.1116.2555-.2296.393-.3302.9288-.7056 1.9997-1.0699 3.124-1.29774 1.8596-.37633 3.7347-.37172 5.6099-.15312 2.9037.33946 5.6708 1.14376 8.2931 2.44056.2564.1292.5101.2611.7932.4068 0-.238-.0147-.4455.0037-.6512.0231-.3173.1836-.499.4335-.5285.238-.0295.3773.0599.4243.2942.0378.1983.048.4022.0766.6014.0636.4538.2748.8385.5866 1.1724.0304.0341.0683.0636.1061.0894.0184.0139.0424.0129.1088.0259 0-.1633.0009-.3137 0-.4631-.0046-.3034-.0175-.6078-.0101-.9113.0018-.0747.0553-.1946.106-.2094.0711-.0193.2002.0166.2454.0729.119.1568.2472.3265.3007.5128.119.3948.1734.808.2961 1.2001.0821.2536.2103.5045.3717.7148.1762.2306.356.1799.4234-.1024.0627-.2638.0857-.5377.1254-.8071.0138-.0931.0175-.1891.0461-.2758.0222-.0747.0775-.1365.1172-.2056.0608.0562.1512.0977.1771.1678.0618.1568.1226.3256.1309.4907.0194.3653-.0156.7333.0111 1.0967.0148.1937.0793.4003.1734.5682.1052.1873.2749.1651.3321-.0443.0839-.2988.1254-.6078.1854-.9131.0424-.2066.0857-.4123.1355-.665.2445.2084.3035.4399.3275.6641.0618.5967.0932 1.1963.1448 1.794.0415.4483.1946.8421.4593 1.2249.4806.6964.9058 1.4334 1.3366 2.1639.2204.3745.4252.4086.6327.023.2343-.4381.4086-.9057.6069-1.3641.0867-.2002.1587-.404.25-.6014.0424-.096.1144-.1771.1799-.2767.2352.1706.2914.3938.2462.6152-.0673.333-.19.6567-.2767.986-.0941.3597-.1928.7185-.249 1.0856-.0212.1476.0452.3247.1116.4677.0959.2075.2472.2324.4086.0701.166-.1642.2933-.3644.4538-.5313.0913-.0959.2158-.1541.3265-.2297.0618.1347.1873.2749.1762.404-.0231.274-.0885.5534-.1891.8099-.2057.5211-.4805 1.0173-.6567 1.5459-.1273.3837-.1513.8033-.1928 1.2101-.012.0996.072.2758.1504.3044.082.0286.2444-.0526.3173-.1328.3348-.3671.6493-.7555.9786-1.1327.0793-.0941.1872-.1605.2813-.2417.0323.0166.0627.0295.0959.0471-.0322.213-.023.4436-.1005.6419-.1328.3293-.2952.6531-.4833.9529-.2979.4768-.6383.9242-.9427 1.3946-.5645.8698-.939 1.8198-1.1723 2.8307-.1697.7269-.4086 1.438-.6189 2.1529-.024.0885-.0572.1743-.06.273.1836-.2924.3634-.5913.5534-.8827.3976-.6125.856-1.1751 1.4721-1.581.31-.2029.6429-.3855.9898-.5128 1.7829-.6558 3.5852-1.2655 5.2842-2.1205.4833-.2463.9455-.5424 1.3854-.8634.5571-.404.7619-.9676.5959-1.6501-.1162-.4741-.2325-.9473-.3533-1.4408-.2878.4594-.5423.9021-.832 1.3172-.2896.4151-.6493.7674-1.1834 1.0045.0489-.0914.0618-.131.0867-.1633.749-1.0321 1.1797-2.2054 1.5146-3.4202.0341-.1254-.0046-.2767-.0268-.4123-.1531-.8854-.0793-1.7728-.0396-2.661.0101-.1762.0101-.3597-.0157-.535-.0111-.0812-.0766-.1826-.1458-.2131-.047-.0212-.1697.0434-.2112.0997-.1725.2416-.3643.4787-.4796.7452-.464 1.0783-.9076 2.1658-1.3513 3.2505-.5516 1.3549-1.1723 2.6703-2.1205 3.8011-.4289.5119-.9159.9574-1.5155 1.2682-.1134.0582-.2361.1052-.3643.1458.927-.9584 1.1345-2.1713 1.176-3.4119.0553-1.5883.0231-3.1803.0397-4.7705.0166-1.7193.1586-3.4238.6714-5.0804.0194-.0655-.0138-.1614-.0498-.2269-.1438-.2823-.3274-.5461-.4473-.8375-.2509-.6116-.4621-1.2388-.7093-1.85402-.143-.36157-.1928-.38832-.5802-.36065-.416.02952-.6659-.20938-.8864-.50546-.1697-.22413-.2389-.2186-.3551.04428-.1264.28593-.226.58017-.3625.86149-.047.09596-.1679.15866-.2536.23616-.0665-.0978-.1762-.19373-.1882-.29796-.0351-.34035-.0258-.68348-.0507-1.02475-.012-.16972-.0342-.34128-.0914-.49993-.0276-.07471-.142-.15588-.225-.16234-.0581-.00461-.1605.09593-.1854.17156-.0849.24259-.1338.49532-.2112.73975-.0609.19646-.1495.21768-.2666.05718-.8532-1.16219-1.9905-1.98587-3.208-2.71823-.3597-.21584-.7121-.44181-1.069-.65949-.025.0083-.0499.01752-.0729.02397.0461.3957.0931.79048.1374 1.18526-.0323.01752-.0645.03228-.0959.04888-.1135-.09593-.2426-.17525-.3367-.28778-.2361-.27948-.4501-.57649-.6899-.85504-.475-.55712-1.0718-.95558-1.6464-1.08748.1817.6226.3551 1.212.5257 1.80324-.0258.01384-.0563.0249-.083.03689-.059-.07379-.1291-.14204-.178-.22229-.1384-.22598-.2758-.45104-.404-.68347-.5479-.99155-1.3928-1.56343-2.5015-1.723-.7536-.10884-1.5182-.18078-2.2773-.23244-.5572-.03874-1.0931-.12083-1.6031-.36526-.3542-.16141-.7379-.27302-1.1143-.39754-.0627-.02214-.1466.00461-.2195.00922.0056.08025-.012.17341.0203.23982.1771.34681.3699.68532.5479 1.03213.0655.12452.1079.26196.1596.39386-.0176.01937-.0342.03689-.0508.05626-.1134-.03781-.2315-.06364-.3375-.1153-.4907-.23797-.9879-.4621-1.4629-.72959-.4834-.27302-1.0156-.29516-1.5385-.33944-1.6363-.13743-3.2542-.02766-4.8361.45105-.962.28962-1.8512.72683-2.6333 1.40293.0987-.01014.201-.01014.297-.02767.9546-.19647 1.9102-.38094 2.8935-.34866.6696.02122 1.3217.12821 1.9093.46765.0941.05349.1531.16602.2287.24996-.1319.04612-.2702.13466-.3966.11806-.3053-.03597-.6032-.14942-.9113-.17433-.9796-.08762-1.9222.13836-2.8547.3957-2.258.61983-4.3029 1.67411-6.2021 3.03092-.463.32929-.9436.63459-1.4251.9408-.9371.5959-1.6953 1.3661-2.2948 2.2986-.0701.1107-.1347.2296-.1799.3523-.1227.3413-.0323.6263.2896.796.2306.1218.4861.2085.7416.2703 3.375.8227 5.8885 3.6046 6.2777 7.046.1467 1.2904.3265 2.5845.262 3.8933-.1485 3.0042-1.224 5.6219-3.2302 7.8577-1.1926 1.3301-2.602 2.3881-4.1461 3.2781-.0304.0203-.0636.0333-.154.0803Z"></path>
  <path fill="#8b4fba" d="M73.7315 16.0027c-1.4342 11.1958-6.4021 8.6621-9.6526 14.9121-.178-.2362-.5885 1.675.2306-1.8734.82-3.552 3.1702-1.948 5.394-6.0102 2.8161-5.1339 2.2543-5.5942 4.028-7.0285Z" opacity=".2"></path>
  <path fill="#ffffff" d="M58.8879 16.2141c-.5331 3.2044-5.0638 3.0596-8.9406 1.7-4.2125-1.4777-12.9658-1.9518-13.6696-.1891-.3514.404-1.057-1.2572-1.057-1.2572s6.6475-7.25263 17.776.4022c-.4529-.7047 3.9994-2.7672 3.9994-2.7672s1.3384-.4077 1.8918 2.1113Z" opacity=".3"></path>
  <path fill="#8b4fba" d="M35.8306 46.9804c.2417.5996 2.21.1956 2.3945-.7406-2.9037-3.2892 4.741-9.3335-2.3096-17.2226 4.6127 12.1717-5.2096 12.667-.0849 17.9632Z" opacity=".2"></path>
  <path fill="#8b4fba" d="M35.8306 46.9806c.2417.5995.1983.428.3819-.5083-2.9037-3.2901 4.8304-8.0873-.297-17.4549 4.6127 12.1716-5.2096 12.6669-.0849 17.9632Z" opacity=".6"></path>
  <path fill="url(#d)" d="M46.4105 44.5791c13.9546-14.6833-3.6858-12.2233-9.435-22.1895.0102-.1716.0222-.3376.0222-.5138 0-1.3854-.3358-2.6896-.9206-3.8463 5.3812 7.9813 19.0222.9436 16.3731 17.2595-.2389.8384-2.1371 9.1065-6.0397 9.2901Z"></path>
  <path fill="url(#e)" d="M46.4104 44.5778c-5.7445 2.8197-10.7668 2.9027-10.5298 2.0661 11.4144-7.7451 2.2008-15.7264.0526-23.2447.1467-.6069 1.0644-.8329 1.0644-1.5219 0-.0738-.0092-.1439-.011-.2168.166.7462.5589 1.0054.9362 1.3836 5.3054 5.3516 22.1701 7.1401 8.4876 21.5337Z"></path>
  <path fill="#e65271" d="M44.6115 44.3592c8.8354-13.1973-7.6594-15.7043-7.5404-19.8882-1.3135 8.6057 14.4978 12.2897-.3588 22.5898-.2371.8357 2.1537.119 7.8992-2.7016Z"></path>
  <path fill="url(#f)" d="M69.302 21.4349c.7019 1.1723-.0775 2.5559-.8947 3.8518-.7545 1.1972-2.5762.8052-3.8122 3.6913l.1061-2.2487c1.3688-2.3862-.9473-5.6708-1.5929-7.8909-1.0967-3.7818-2.2912-7.2711-.8357-11.10817.0978-.25734.1817-.53959.2813-.80431.7259.5359 1.2738 1.06996 1.8983 1.88441.4123.54051.2684-1.39463.8107-.98786.3994.29424-.0193 1.66304.3616 1.97941.4252.35972.6826-1.72299.9906-1.2618.7204 1.08286 1.1336.39569 1.4408.72037.2776.29424.927 2.56235 1.1889 2.86955.2555.2979.5009.605.7425.914-.1457 1.6511-.4667 3.5069-.998 4.9965-.5008 1.4066-.5239 1.9933.3127 3.3944Z"></path>
  <path fill="#e65271" d="M49.6609 4.19459c.0434.01568.0793.02213.1015.02121.3864-.00646-1.0423-1.80232-.6319-1.80232.6937 0 1.6714.71576 2.3493.76834 1.4325.10976 2.9166.07748 4.1848.65765 1.2148.55712 1.7553 2.28657 2.0274 2.35943.2749.07564-.6613-1.99878-.3929-1.90654.4547.15311.8181.37817 1.1179.62721 1.1991 1.71654 1.5892 10.22363-.1716 10.00403-1.8484-.2306 2.9166.6531 2.936.5821 1.5938-6.01485-1.9564-9.71356-1.7959-9.50511.2103.27672.3791.49163.5589.56081.3782.14573-.2361-1.44997.1098-1.23875 1.1004.67241 1.8807 1.14651 2.5218 1.6243.0193.02767.0249.09408.0562.08117.4732-.19647 3.3879-.88179 1.1696 9.58898 3.3685-6.81725.7315-9.49213.9897-9.21265 1.1963 1.29132 1.4408 4.44395 1.5948 6.31365.1448 1.7534-.9583 5.751-2.3871 7.0728-1.0072.9297-.9869-.2214-1.3642-1.1106-.6207-1.4601-1.759-2.6371-2.792-3.8398-.7693-.8947-1.7027-1.5487-2.5485-2.3493-.9215-.8726-1.4067-2.092-2.2303-3.0494-.737-.85594-1.6419-1.53758-2.3419-2.43043-.7859-.99986-1.3107-2.1436-2.1778-3.06413-.2748-.29516-.5829-.51653-.8836-.75265Z"></path>
  <path fill="url(#g)" d="M56.1199 3.24016c2.0587-.00645 3.3519.97956 5.0546 1.92223 1.4112.78494 3.1462.79232 4.3388 1.87334 1.5846 1.43798 2.27 2.86305 2.567 4.96787.3403 2.3964.3818 5.4513-.072 7.8393-.2324 1.2249-1.1022 3.7356-2.02 4.6312l-1.1013-.701c-2.1713-5.6089-8.7192-7.9103-11.1967-13.4224-.7305-1.62242-1.0054-3.73096-1.0232-5.50376-.0191-1.85582 1.953-1.60124 3.4528-1.60678Z"></path>
  <path fill="#f6e8a0" d="M35.6353 17.2559c-1.1972-1.8605-3.0927-3.2283-5.3193-3.7255-.5663-.1264-1.5819-.4787-.5765-1.6879 1.0746-1.6769 2.6186-2.32074 3.4497-2.93689 3.3417-2.48118 1.96-2.73483 3.909-2.95989.7619-.08855.5608-.15496.9473 0 .3865.15496-.297-.10884-.5415-.27026-2.1749-1.43982-2.0181 1.43245-1.0837.81169 2.7846-2.15282 9.1969-3.66367 10.9946-3.35559.2611.04427 2.068 1.0884 2.3456 1.08378.3865-.00645-1.0413-1.80231-.6309-1.80231.6918 0 1.6714.71576 2.3493.76833 1.403.10792 5.6689 2.06428 5.6376 7.21484-.0093 1.5735.0876 2.6767-.1245 3.7033-1.5542 7.5339-17.301-3.0383-21.3567 3.1564Z"></path>
  <path fill="#ffffff" d="M54.4853 12.6114c-.7296-.9113-5.4734-2.554-5.4734-2.554s-7.8761-2.71457-15.1398 5.0158c3.7116-2.9469 10.2365-1.711 14.9544-1.1668.6235.0729-1.3476-.5562-.831-.7471 1.7515-.6484 3.3749 1.1687 5.1219.8182.8154-.1624 1.3042-.6051 1.3679-1.3661Z"></path>
  <path fill="#f6e8a0" d="M48.4429 11.3366c-2.8926-.7619-5.7842.3533-6.3413.3874.2628-.3939.6899-1.3024 2.8316-1.616.4926-.0729 1.4795.0064 1.997.0055.926-.0018 1.5007.2214 2.3179.6152.5212.2509 1.782.5184 2.1814.4557 0 0 4.4339.3339 2.9655 1.8374-1.4675 1.5025-3.6084-1.9379-8.3079-.8376.0019-.1531 1.0755-.9196 2.3558-.8476Z"></path>
  <path fill="#f8d285" d="M44.0581 5.103c-1.8272-1.21016-5.0242-.17249-5.4383-.17802-.0092-.04243.0166-.08947.0904-.13651 2.7856-2.15282 6.9104-1.96097 8.7081-1.6529.0139.00185.0323.0083.0535.01568.0083.00277.0212.00738.0323.01199.3892.14943 1.6621.86611 2.1252 1.02384 2.7099 1.53575 6.9906 4.77882 7.3679 9.91642-1.5395-.6844-2.6463-1.3513-3.4967-2.0006-.2869-.2186-6.7629-6.98791-23.9052 1.1456 0 0-.4769-.262-.2048-.8744 3.8712-6.22052 10.9385-8.00716 22.1942-2.116-1.5966-1.90282-2.3696-3.62581-7.5266-5.1551Z"></path>
  <path fill="url(#h)" d="M55.0162 40.0635c6.3487-6.4926 8.936-11.3434 5.8626-16.5668-4.9771-8.4664-20.3051.3644-26.9711-8.1768.7066.8071 2.2091 2.4055 3.6609 3.1914 4.9412 3.2283 14.2415 2.1897 17.205 4.6857 3.8141 3.2089 4.7872 9.6821.2426 16.8665Z"></path>
  <path fill="url(#i)" d="M34.3323 26.4929c-.0074.4354.9887 2.947.8329 3.5253-1.3375 4.9375-7.1328 7.3596-7.1328 7.3596s-6.4907 2.6122-7.5228 14.5514c-1.1834.8513-1.0193-.962-.9824-1.7682.7361-15.6573 13.7628-13.9075 14.8051-23.6681Z"></path>
  <path fill="url(#j)" d="M56.4154 52.3676c-.107-.0498-.2094-.1134-.3219-.1457-.5682-.1587-1.141-.3044-1.711-.4667-.1799-.0517-.3514-.1338-.5276-.2011.0018-.0388.0037-.0766.0037-.1135.2057-.0369.4067-.1014.6124-.1042.8182-.0092 1.6363.0018 2.4554.0037 1.1566.0027 2.317-.0028 3.4321-.3404.5442-.166 1.0755-.415 1.5745-.6927 5.2696-2.9331 8.9932-7.2259 11.2336-12.8164.4584-1.1428.8099-2.3243 1.081-3.5234.0176-.0664.024-.1356.0443-.2509-.0876.0535-.1439.0793-.1965.1134-3.2246 2.2091-6.7462 3.7071-10.5888 4.4348-1.3743.2592-2.7616.3893-4.1599.4298-.1042.0028-.238.0425-.3071.1144-2.0901 2.1307-4.5584 3.7061-7.2213 5.0168-2.1261 1.0451-4.3702 1.6769-6.678 2.1261-2.958.5746-5.9235 1.1207-8.8815 1.6898-3.6333.6982-7.248 1.4739-10.7604 2.6619-2.2285.7527-4.3868 1.6575-6.3607 2.9535-1.486.9777-2.8086 2.1325-3.7439 3.6701-.3284.5423-.5618 1.1428-.8449 1.7138-.0517.1024-.1061.2093-.1854.2877-1.9591 1.9158-2.7312 4.2467-2.4305 6.9511.2232 2.0006.9399 3.8306 1.9619 5.5526.1208.202.2232.4123.3182.5904.0489-.4363.0877-.9252.1559-1.4094.4326-3.0817 2.0191-5.3765 4.7198-6.9095 1.5708-.8947 3.2624-1.486 5.0159-1.8734 1.9222-.4243 3.861-.7812 5.7989-1.1326 2.353-.4253 4.7189-.7804 7.0064-1.5017.4446-.1392.8845-.3007 1.3217-.4667.5627-.2112 1.0884-.4833 1.5782-.8467 1.6215-1.1945 3.399-2.1095 5.2714-2.8419.0516-.0193.0996-.0415.1503-.0608.0019-.0074.0028-.0176.0102-.0369-.0305-.0028-.0572-.0065-.0849-.0065-2.0947-.0009-4.194.0111-6.2887-.0009-1.8752-.012-3.7439.0461-5.6025.2905-2.5744.3413-5.0657 1.0082-7.4925 1.9315-2.8621 1.0921-5.5702 2.4895-8.1971 4.0575-.0701.0424-.142.083-.237.0996.0498-.0396.095-.0839.1429-.1208 2.8751-2.1796 5.9364-4.0409 9.3132-5.3461 2.3521-.9067 4.7788-1.5025 7.2877-1.7682 2.21-.2333 4.4209-.2112 6.6328-.0507 1.9121.1393 3.8241.2786 5.739.4095.166.0139.3431-.011.5045-.0581 1.8918-.5755 3.8279-.9141 5.7824-1.1917 1.1548-.1632 2.293-.44 3.4377-.6678.0774-.0166.1503-.0572.2241-.0876.0037-.0203.0083-.0434.012-.0655Z"></path>
  <path fill="#ffffff" d="M21.1943 58.8159c7.4943-8.9516 26.9361-4.2595 35.2209-6.4492-5.2447 3.0134-9.5125 2.4932-9.5125 2.4932s-17.9023-1.9776-25.7084 3.956Z" opacity=".2"></path>
  <path fill="#e65271" d="M78.4906 24.8471c-.2536.0433-.4409.0553-.6124.1107-.6743.2112-1.3781.368-2.0117.6724-.6023.2905-1.1604.7028-1.6815 1.1271-1.0128.8228-1.9785 1.6981-2.9765 2.531-.8182.6816-1.6852 1.2913-2.7183 1.6077-.3329.1015-.6788.1596-1.0266.2167 1.3458-.6779 2.0994-1.8862 2.8806-3.1259-.0664.012-.0904.0092-.1079.0176-2.0532 1.0044-4.064 2.0771-5.8921 3.4672-.487.3717-.8726.7941-1.1465 1.3706-.44.9168-.9962 1.7793-1.5007 2.6629-.0222.0397-.0471.0784-.108.1845.4419-.0932.8293-.155 1.2102-.2518 1.6086-.4114 3.1047-1.1078 4.5731-1.8642 2.293-1.1871 4.4772-2.5595 6.595-4.0326.0646-.0442.1301-.0867.214-.1125-.0194.0267-.0341.0563-.0572.0784-2.5135 2.5061-5.3322 4.5704-8.6279 5.9382-1.425.594-2.9018.9897-4.4384 1.1493-.0572.0083-.1319.0258-.1642.0655-.3422.4141-.6761.8329-1.0552 1.3005.938-.201 1.8207-.3772 2.697-.581 2.4535-.5701 4.86-1.2941 7.1567-2.3383 1.6972-.7711 3.315-1.6778 4.6764-2.9672 1.7968-1.7027 3.1195-3.7172 3.8915-6.0766.1126-.3468.1476-.7223.2306-1.1502Z"></path>
  <path fill="#8b4fba" d="M36.0444 47.6309c.7278-.2445 1.557-.547 2.4416-.8864 10.4274-3.2514 13.8743-5.9632 13.8743-5.9632l10.4754-7.7553s1.711 1.3107 3.9275-.4031c-1.51 1.8125-6.1431 3.2228-6.1431 3.2228s-.213 1.426-1.7239 2.5338c4.1212-1.4011 11.0482-.999 15.8538-5.3268-3.6342 10.279-12.6605 2.4434-21.3834 8.8364-1.0063.6051-14.3106 4.0049-7.699 3.7716 6.6115-.2325 10.967 4.2798 16.4892 2.8003-5.1828 1.8807-9.7642-1.1318-16.9846-1.6391 1.1235.2251 2.662.844 3.3178 1.6898-2.6177-1.8687-7.7396-1.9545-8.9572-1.5274-1.105.1402-2.2662.3514-3.4884.6466Z" opacity=".6"></path>
  <path fill="#2b2b2b" d="M61.0563 50.8013c-7.5976 3.018-34.4506-5.7242-46.5079 7.8383 0 0-.903-.4039 3.8989-5.786 18.8791-9.0254 32.9296-.4907 42.609-2.0523Z" opacity=".2"></path>
  <path fill="url(#k)" d="M72.8057 38.7789c2.2478-1.2646.4216 1.8263-1.8254 3.6516-8.8501 6.1799-12.8514-.8522-21.6278 2.532 13.427-7.4021 14.7433 1.8226 23.4532-6.1836Z" opacity=".7"></path>
  <path fill="#8b4fba" d="M72.1176 40.5342c2.2488-1.2645 1.1097.072-1.1372 1.8983-8.8502 6.1799-12.8515-.8523-21.6279 2.5319 8.639-4.8074 14.057 3.5742 22.7651-4.4302Z" opacity=".2"></path>
  <g opacity=".7">
    <path fill="url(#l)" d="M28.4275 37.2203c-4.0935 3.7466-.8846 11.9512-.8846 11.9512l-2.9128.6244s-2.9396-7.9324 3.7974-12.5756Z"></path>
    <path fill="url(#m)" d="M35.4933 30.9346c3.0854 5.4909-5.097 13.0442-.7037 15.7182-.0692.3606-2.5126 1.5856-2.3982 1.2314-5.4226-8.3208 3.5207-10.3048 2.3465-15.507-6.2703 8.555-6.3376 10.2485-3.291 15.6647-.0369.0295-.3717.4667-.7056.2177-4.7641-3.5715-6.1052-7.5856 4.752-17.325Z"></path>
  </g>
  <path fill="#8b4fba" d="M45.5757 42.0926c.1955 2.5715 1.9914-1.6059 2.2635-4.4892.2343-10.7899-10.706-8.1806-11.2059-16.9099-1.0644 9.9312 10.7733 9.7126 8.9424 21.3991Z" opacity=".2"></path>
  <path fill="#ffffff" d="M56.1835 37.8124c.1937 2.5716 5.3572-4.0474 5.6302-6.9298-1.7331-18.5129-20.7875-7.2535-25.7693-14.0754 4.1157 7.4731 30.7492-2.9221 20.1391 21.0052Z" opacity=".3"></path>
  <path fill="url(#n)" d="M91.0471 73.861c-.2795.2453-.5092.4685-.7619.6622-.2029.1541-.4252.2906-.654.404-.5571.2694-1.1179.3044-1.6805.0056-.8772-.4649-1.819-.4999-2.7792-.3948-.2794.0295-.4621.1623-.5903.4234-.962 1.9794-2.5651 3.2504-4.5731 4.0547-.2297.0923-.3376.1993-.3782.4492-.1014.63-.1448 1.2498.0046 1.878.2435 1.0044.868 1.7248 1.7101 2.2792.8809.5811 1.8641.9233 2.8787 1.1778 1.2203.3016 2.4554.5055 3.7163.5019.641-.001 1.2756-.0757 1.8918-.2621 1.3762-.4159 2.2266-1.3355 2.5383-2.7256.202-.903.393-1.8152.4852-2.733.2112-2.1039-.3523-3.992-1.7433-5.6117-.024-.0313-.0415-.0701-.0645-.1088Z"></path>
  <path fill="#f6e8a0" d="M87.0671 74.0157c.1043.6318 1.2904.8034 1.8411.7849.9694-.0323 1.5966-.5977 2.2266-1.3319.1015-.1199.1808-.238.25-.3588 1.0967.8754 1.711 2.0606 1.5422 3.2698-.2989 2.1307-2.923 3.5207-5.8589 3.1084-2.0302-.2859-3.6785-1.3605-4.4016-2.7007.5368-.6862.7471-1.5579 1.4546-2.1519.6899-.5755 2.0513-.6585 2.946-.6198Z" opacity=".3"></path>
  <path fill="url(#o)" d="M15.6765 53.982c.6346.3136 1.0783.3819 1.4721.2398-.4528-2.3059-.6899-4.6312-.6096-6.9713.0904-2.59.5386-5.1118 1.675-7.473.1439-.2998.3108-.5904.5064-.8671-.012.0461-.0194.0932-.0369.1356-.6116 1.5358-.8938 3.1388-.986 4.7844-.1458 2.5642.1568 5.0878.7111 7.5865.0138.0609.0314.1199.0572.2084.3625-.2435.7148-.4759 1.0589-.7203.0415-.0305.0424-.1421.0332-.2131-.1753-1.5173-.1633-3.0337 0-4.551.2343-2.1676.7692-4.2567 1.5321-6.2915 1.0625-2.8409 2.5033-5.4789 4.2622-7.9444.0415-.0572.0831-.1144.1218-.1725.0083-.0129.0074-.0286.0194-.0756-.2555.0904-.4954.1725-.7361.2592-1.6197.5866-3.2062 1.2489-4.7336 2.0495-.2389.1236-.4695.2795-.6724.4575-2.1492 1.9038-3.4174 4.3111-3.9902 7.1032-.0849.415-.1457.8375-.261 1.2544.0249-.463.0378-.9279.0784-1.3909.1918-2.2036.6041-4.3666 1.3466-6.4539.1891-.5304.0572-1.0091-.023-1.5071-.0249-.155-.1347-.297-.2066-.4456-.119.1153-.2657.2122-.3515.3487-.6106.9713-1.0044 2.0375-1.3263 3.1315-.4935 1.6732-.7877 3.3943-1.0303 5.1228-.2251 1.6142-.3681 3.2376-.3616 4.8692.0083 1.6502.1347 3.2855.6835 4.8609.261.749.6124 1.4509 1.1188 2.0643.1799.2195.404.4068.6051.6097.0147-.0037.0277-.0055.0433-.0083Z"></path>
  <path fill="#2b2b2b" d="M23.1569 31.7142s-4.1009.5765-5.8303 3.3971c-1.7304 2.8188-2.2276 7.6668-2.2276 7.6668s-.8854 7.2305 2.0495 11.4411c-1.8595-15.4405 6.0084-22.505 6.0084-22.505Z" opacity=".2"></path>
  <path fill="url(#p)" d="M15.6764 53.9822c-.0157.0028-.0286.0046-.0434.0065-.8458-.3303-1.5071-.8994-2.0476-1.6142-.7868-1.0423-1.2-2.2478-1.4555-3.5087-.3782-1.8798-.4105-3.7808-.25-5.6809.0932-1.0856.2509-2.1676.3828-3.2477.0046-.0387.0055-.0765.0092-.1549-.0664.0571-.1134.0894-.1513.1291-3.13603 3.2514-5.49454 6.9971-7.03859 11.2446-.04058.1107-.02675.2602.00738.3764.92237 2.946 2.2552 5.703 3.88965 8.3133.68993 1.1013 1.44996 2.1584 2.17956 3.2348.0572.0849.1245.1614.2288.2979.0258-.5414.3154-.9795.0922-1.5099-.285-.6761-.4686-1.3873-.4308-2.1362.0157-.2767.0812-.535.274-.7914.1909.5423.3385 1.0764.7637 1.485.1245-.2223.1494-.416.0701-.654-.2951-.8836-.5008-1.7866-.4446-2.7265.0176-.2878.083-.5709.1614-.8606.2565.7056.6817 1.283 1.1733 1.8374.0286-.0424.0553-.0701.0701-.1033.6558-1.3559 1.4961-2.5873 2.4969-3.7107.0461-.0544.0442-.1504.0627-.226Z"></path>
  <path fill="#2b2b2b" d="M12.5034 57.5979s-4.61191-9.0254-2.4536-16.7761c.2685-.2121-.43255.3348-1.26637 1.295-.12821.1458-1.67411 10.3804 1.46477 14.8927-4.21898-5.0048-2.22112-13.9472-2.40006-13.6862-.37633.5571-.71484 1.1723-.93897 1.8152C4.75081 55.244 12.2073 61.3262 12.2073 61.3262l.2961-3.7283Z" opacity=".2"></path>
  <path fill="#e65270" d="M83.0783 90.091c-.19.2896-.4105.5811-.5857.9021-.1624.2914-.1947.6235-.0877.9519.1329.4058.404.5617.8265.5027.3385-.0517.677-.1034 1.0183-.1144.3625-.012.3874.0369.4289.3883.0092.0932.0212.1891.0563.2739.1365.3478.3385.6476.7425.7011.3929.0516.6687-.1679.8799-.4695.6318-.8947.1079-2.104-.9897-2.2497-.3404-.0452-.6955.0101-1.0441.0194-.0674.0027-.1347.0147-.2011.0203-.0166-.0194-.0332-.0415-.0507-.0609.0941-.1098.1669-.2555.285-.3247.2499-.1411.5184-.1992.8264-.1642 1.8789.2149 3.6702-.0074 5.264-1.1336.8846-.6263 1.5385-1.4481 2.0375-2.4018.0037-.0065.0093-.0129.013-.0194.0627-.1734.1909-.3846.0193-.5165-.0987-.0775-.3265-.0434-.4768.0055-.702.2306-1.3836.523-2.0948.7167-1.0376.2841-2.1131.2933-3.1812.2352-1.4435-.0775-2.8631-.3072-4.2263-.8191-1.5275-.5737-2.9064-1.3835-4.1028-2.4987-.1374-.1291-.2767-.2555-.4316-.3597-.2601-.1734-.4391-.0876-.4483.2278-.0074.2232.0148.4529.0646.6724.5119 2.2294 1.8641 3.7974 3.8629 4.8333.5239.2748 1.0865.4676 1.5957.6816Z"></path>
  <path fill="url(#q)" d="M3.70449 48.5961c-.08117 8.0441 2.50609 15.0246 7.89371 20.9518-.0757-.5461-.1762-1.0921-.2223-1.6373-.0766-.9306-.1264-1.8641-.1716-2.7994-.0092-.19-.0572-.3403-.1642-.4925-2.01721-2.9101-3.86749-5.9207-5.34329-9.1481-.74896-1.6372-1.38909-3.3187-1.73221-5.0934-.11069-.5737-.17249-1.1557-.26011-1.7811Z"></path>
  <path fill="url(#r)" d="M69.4908 22.1431c.9648-1.6686 1.9601-3.2745 2.3134-5.1662.059-.3164.0415-.6531.0212-.9796-.1052-1.8245.0839-3.6056.6751-5.3433.0526-.1541.1153-.3164.1116-.4732-.0018-.13-.0701-.28039-.1568-.38278-.1097-.13005-.261-.08393-.403-.00277-.4548.25735-.785.63555-1.0497 1.07545-.5387.8846-.8264 1.8632-1.0257 2.8649-.5488 2.7441-.6318 5.5186-.5239 8.3078.0019.0148.0111.0277.0378.0997Z"></path>
  <path fill="#8b4fba" d="M70.0584 11.5151c.1752-.3727.8965-1.1881 1.1861-1.4233l.6522-.41595c-.6559 1.67135-.8901 3.37215-.8901 5.15235 0 1.4998.4611 2.8926.5349 4.385.0581 1.2295-.4778 1.8475-1.1151 2.8483-.2878.4501-.6807 1.425-1.3061 1.4287-.2896-.7111-.2435-1.6021-.25-2.3631-.0083-.9104-.154-1.7986-.118-2.7182.0673-1.7359 1.0054-6.2546 1.3061-6.8938Z" opacity=".4"></path>
  <path fill="#e65270" d="M92.5104 83.4087c-.0277.0221-.0369.0258-.0396.0314-.7093 1.4582-1.9702 2.0947-3.494 2.2229-2.5172.214-4.9319-.2574-7.2231-1.3107-.9657-.4446-1.7912-1.0902-2.2561-2.0827-.202-.4289-.2989-.9067-.4492-1.3781-.4999-.0027-1.0949.4917-1.1336 1.0248-.0138.1734.059.3671.1374.5295.3164.6539.8246 1.1492 1.379 1.5975 1.425 1.1502 3.0567 1.8761 4.8258 2.3041 2.3235.5626 4.646.5792 6.9446-.1171.5442-.1651 1.0589-.4419 1.5652-.7112.3911-.2094.5904-.5673.5313-1.0331-.0618-.5017-.3219-.8615-.7877-1.0773Z"></path>
  <path fill="#2b2b2b" d="M92.5104 83.4087c-.0277.0221-.0369.0258-.0396.0314-.7093 1.4582-1.9702 2.0947-3.494 2.2229-2.5172.214-4.9319-.2574-7.2231-1.3107-.9657-.4446-1.7912-1.0902-2.2561-2.0827-.202-.4289-.2989-.9067-.4492-1.3781-.4999-.0027-1.0949.4917-1.1336 1.0248-.0138.1734.059.3671.1374.5295.3164.6539.8246 1.1492 1.379 1.5975 1.425 1.1502 3.0567 1.8761 4.8258 2.3041 2.3235.5626 4.646.5792 6.9446-.1171.5442-.1651 1.0589-.4419 1.5652-.7112.3911-.2094.5904-.5673.5313-1.0331-.0618-.5017-.3219-.8615-.7877-1.0773Z" opacity=".4"></path>
  <path fill="#0d0d0d" d="M67.236 60.2659c-.0175.9012.1715 1.7489.5589 2.5532.7868 1.615 2.0818 2.6712 3.7052 3.3639 1.4159.605 2.9018.8107 4.4339.7314.0193-.0009.0387-.0092.1042-.0295-1.0718-.1651-2.068-.4317-3.0319-.8163-1.6694-.6669-3.1406-1.6151-4.2844-3.0291-.6134-.7563-1.0755-1.5985-1.3909-2.5227-.0268-.0848-.0618-.1679-.095-.2509Z"></path>
  <path fill="#0d0d0d" d="M79.7407 47.3711c1.6483-1.0063 2.0043-3.3704.9473-4.7216.249 1.6879-.0922 3.255-.9473 4.7216Z"></path>
  <path fill="#0d0d0d" d="M82.4583 56.6475c.8052.6604 1.7755.843 2.7865.8255.404-.0102.8061-.0766 1.2101-.0959.2177-.0102.4465.0037.6623.0507.4077.0932.5894.0304.7287-.3607.3154-.8919.4639-1.8161.3578-2.7578-.0516-.4511-.1448-.9141-.3256-1.3273-.7028-1.6446-2.8335-2.3207-4.4117-1.4223-.2038.1153-.3947.2499-.5764.3993-.1919.1559-.3653.3367-.5645.523.0894.1024.1632.2011.2462.2869.191.1955.2629.427.2048.6872-.1808.8153.1725 1.3955.8541 1.7681.487.2657 1.0202.4566 1.5505.6328.274.0941.5553.1605.8412.2177.0867-.0028.1246-.0176.1928-.072.4252-.2748.7296-.6355.9168-1.1077.1015.2785.0812.7415-.0083 1.0856-.0553.2121-.0193.7324.0895.8836-.0092.0092-.0175.0194-.023.0277-.0508-.024-.0997-.0498-.1476-.0784-.5461-.3348-1.1567-.4409-1.7802-.5184-.7693-.0977-1.5182-.2739-2.174-.7176-.7887-.534-1.212-1.2765-1.2582-2.2312-.0018-.0295-.0064-.0572-.0166-.1356-.7148 1.3956-.4962 2.5015.6448 3.4368Z"></path>
  <path fill="url(#s)" d="M83.5034 53.6417c0 .8679.7038 1.5717 1.5699 1.5717.8689 0 1.5726-.7038 1.5726-1.5717 0-.868-.7037-1.5718-1.5726-1.5718-.8661 0-1.5699.7038-1.5699 1.5718Z"></path>
  <path fill="#ffffff" d="M84.5756 54.0298c.0341 0 .0683-.0095.0983-.0282l.3712-.232c.0542-.034.0872-.0933.0872-.1574v-.4639c0-.0641-.033-.1236-.0872-.1574l-.3712-.232c-.03-.0187-.0642-.0282-.0983-.0282-.0342 0-.0683.0095-.0984.0282l-.3711.232c-.0542.0338-.0873.0933-.0873.1574v.4639c0 .0641.0331.1234.0873.1574l.3711.232c.0301.0187.0642.0282.0984.0282Z"></path>
  <path fill="#ffffff" d="M90.53 80.1259c.2785.1734.712.0996.8734-.2066.6706-1.2747.6088-2.7598-.047-4.0271-.3763-.7268-1.5035-.1402-1.1281.5839.4465.8661.5387 1.9305.0932 2.78-.1586.3035-.1015.6779.2085.8698Z"></path>
  <path fill="#430a1d" d="M22.2878 83.7949c-.3976-11.3627 6.6088-7.6667 9.7255-12.464.2536-.2989.404-.6346.5183-.8947-3.4976 1.9268-13.3034.6401-10.2438 13.3587Z" opacity=".2"></path>
  <path fill="#2b2b2b" d="M16.9525 61.6438c9.6222-8.283 28.6167-7.379 30.0067-7.2619-7.9675 5.6827-31.8698.3404-32.7461 17.6376-1.5514-4.9125.4464-8.4009 2.7394-10.3757Z" opacity=".2"></path>
  <path fill="#430a1d" d="M32.3327 70.8883s-.0019 2.5107 0 4.2845c0 1.7728-2.2285.8061-3.089-1.628 2.1482-.8422 3.089-2.6565 3.089-2.6565Z" opacity=".2"></path>
  <path fill="#430a1d" d="M31.1393 71.73c1.6114-2.8437-.0443-5.3037-.3007-5.4088.915-.048 2.674-1.7654 3.0937-2.3373.6548-.8956.6945-2.1962.7489-3.2597 1.2997-.0581 2.2137-.8541 3.3971-1.1364-1.0063.9418-2.3695 2.056-2.9802 3.3252-.5432 1.1271-1.0026 2.4249-1.3669 3.624-.2979.9823-.5765 1.9582-.76 2.9719-.1366.7545-.5821 1.77-.5009 2.5052 0 0-.166 6.6143 1.1603 9.8804-2.5116-.855-3.8278-2.9045-4.2853-3.6978-.5184-.8974-1.4933-3.1287-.2859-4.55.7794-.2841 1.6326-1.1281 2.0799-1.9167Z" opacity=".2"></path>
  <path fill="#0d0d0d" d="M7.61459 80.3213C12.6701 87.288 19.433 91.7652 27.8395 93.7105c2.8003.6485 5.6477.8265 8.5199.8154 7.0267-.0304 14.0524-.0129 21.079-.0138 4.7254-.0019 9.4525 0 14.1778-.012 1.1244-.0019 2.246-.0766 3.3215-.4511 1.0552-.3652 1.8687-1.0118 2.3235-2.0587.6493-1.5118.095-3.4137-1.308-4.4385-1.0284-.7508-2.21-.9694-3.4533-.914-.3348.0166-.6687.0682-1.0017.1023-.0757.0083-.1587.0259-.2306.0093-.1079-.0231-.2094-.0766-.3127-.1153.059-.0867.1015-.1919.1789-.2555 1.2849-1.093 2.1695-2.4397 2.5928-4.0741.155-.595.2002-1.1991.1439-1.8088-.0037-.048-.0074-.095-.0092-.1402-.0129-.3155.0959-.4132.4068-.428.9186-.0424 1.8364-.0784 2.7523-.1504.4381-.035.8698-.142 1.3642-.1734-.0572.0757-.0996.1873-.1762.2223-.7323.3385-1.2101.903-1.4509 1.6557-.2813.8864-.4787 1.7922-.4381 2.7321.0618 1.5182.6531 2.8243 1.6142 3.9763.8642 1.0331 1.9287 1.8106 3.1324 2.401.1549.0756.1964.142.142.3163-.154.4972-.1347.999.0397 1.4952.106.3025.3007.5221.5783.6779.6327.3524 1.3623.4022 2.0523.1135.0193.0987.0359.2103.0599.3062.1993.7564.6872 1.0571 1.4242 1.4998l.5156 0c.0203 0 .0396-.0544.0608-.0581 1.2978-.2186 1.843-1.4048 1.6926-2.5282-.0387-.2897-.1227-.5747-.1789-.8357.5884-.155 1.1944-.2749 1.7728-.4778 2.6702-.9288 4.4329-2.7311 5.1791-5.477.2979-1.0986.1134-2.0828-.7388-2.8981-.0535-.0535-.0572-.1827-.0452-.2703.166-1.0377.4215-2.068.4879-3.1121.1605-2.4775-.618-4.6497-2.34-6.4612-.1015-.1052-.108-.1956-.0812-.3265.1134-.5553.2435-1.1096.3117-1.6714.1402-1.1326-.2914-2.0716-1.0468-2.8898-.0665-.0728-.1412-.1512-.1735-.2416-.2112-.63-.6475-1.0589-1.2239-1.3485-1.1622-.5857-2.3945-.7047-3.6646-.4935-.832.1393-1.5921.4898-2.3429.8458-.3311.1568-.6355.2352-.9417-.0332-.0526-.0452-.1347-.0563-.1836-.0987-.0848-.0802-.2269-.1919-.2112-.2592.0212-.1033.1439-.2204.25-.2629.5857-.2306 1.1889-.3551 1.8235-.3551.476 0 .9528-.0138 1.4232-.0692 1.5007-.1817 2.8769-.7231 4.1692-1.4942.0867-.0516.1817-.0959.2794-.1116 1.6705-.2555 3.0125-1.568 3.304-3.2302.0286-.1678.0249-.3606.1116-.4943.7084-1.094.7656-2.2562.357-3.4506-.2592-.7555-.619-1.4795-.904-2.2257-.1531-.4003-.308-.8145-.3468-1.2296-.1024-1.1834-.2592-2.3557-.5765-3.4985-.6779-2.4406-1.8862-4.5556-3.826-6.215-1.9582-1.6741-4.254-2.5559-6.7969-2.8261-.2242-.0231-.3422-.095-.4419-.3164-.5552-1.259-1.4684-2.1436-2.7828-2.6029-.3412-.119-.6816-.1458-1.0026-.001-.4575.2113-.9233.4216-1.3328.7112-1.0737.749-1.9241 1.7221-2.6297 2.8225-.0553.083-.1162.1918-.1983.2195-.1107.0359-.2749.0489-.3597-.0102-.0646-.0442-.0794-.2232-.0545-.3274.0296-.1227.1246-.2315.1974-.3394 1.8688-2.7026 3.0577-5.6754 3.6047-8.9157.0193-.1015.0913-.2112.1669-.2878.4594-.4676.9335-.9187 1.3891-1.39.7278-.7517 1.1742-1.6621 1.4122-2.6721.0618-.2647.0922-.5368.1097-.8071.0056-.0821-.0747-.1688-.1153-.2536-.0876.0507-.202.0811-.2555.154-.1245.1697-.2112.3643-.3265.5396-.0756.1162-.1743.2149-.2638.3265-.0277-.0655-.0203-.1024-.0074-.1365.4889-1.2452.8292-2.5282.9934-3.8583.0461-.3708.0775-.7453.0867-1.1179.0074-.2712-.1734-.4428-.3542-.3699-.0968.0388-.1807.1208-.2555.1946-.7268.7204-1.5837 1.2545-2.4618 1.7599-.0193-.0267-.0341-.0387-.035-.0526-.024-.1309-.048-.2601-.0674-.391-.2342-1.5358-.6392-3.0291-1.1077-4.5104-.357-1.1309-.559-2.2866-.3625-3.4783.118-.7102.3699-1.3531.9731-1.8051.0452-.0341.0756-.0886.1291-.1494-.0701-.036-.1134-.071-.1632-.0812-.8698-.1918-1.7692-.0793-2.2571.9196-.0563.1116-.13.2122-.2306.38-.1097-.2195-.2186-.3634-.2536-.5202-.1734-.7877-.2159-1.5892-.1421-2.3945.0941-.9943.4446-1.9047.8772-2.792.1116-.23059.2177-.46764.2896-.71115.1282-.44182-.118-.76833-.5802-.76095-.2296.00461-.4722.04058-.6834.12082-1.1373.42799-2.0034 1.17972-2.579 2.25618-.047.0876-.0904.1743-.1411.2794-.4566-.4436-.8726-.87622-1.0893-1.46839-.1384-.37909-.3229-.74528-.5119-1.09947-.1356-.25457-.238-.24904-.404-.01752-.0452.0618-.0849.13097-.1338.19093-.1282.15403-.2269.15496-.3265-.01937-.0895-.15311-.1568-.32191-.2168-.48702-.297-.80246-.7831-1.46841-1.4499-2.00062-.0452-.03413-.0969-.06088-.2039-.12637.0397.25365.072.45012.0969.64751.0267.202.0507.404.0765.61707-.0599-.00738-.0784-.00554-.0913-.01292-.0646-.04151-.131-.08486-.1946-.13097-2.697-1.8632-5.6459-3.15821-8.8327-3.91456-.9712-.23059-1.9895-.31268-2.8667-.86333-.0194-.01292-.0443-.01938-.0655-.02953-.1734-.06826-.3007-.03044-.4353.10423-.0858.08486-.2389.12268-.3616.12084-.3893-.00923-.7785-.09501-1.1659-.1273-.357-.02951-.7241-.11068-1.0663-.19646-.5875-.14851-1.1585-.719451-1.7349-.719451l-.4216 0c-.1346 0-.2942.387391-.404.522981-.1909.2389-.4252.51838-.725.53775-1.9858.1236-3.9496.41138-5.8838.89378-2.9442.73052-5.7095 1.86412-8.1879 3.64614-1.8106 1.30332-3.3639 2.85106-4.4652 4.81295-.2251.3985-.404.8264-.582 1.247-.1347.3256-.1679.6688-.0554 1.0091.095.2795.3054.4345.5904.3902 1.6178-.2546 2.9885.3367 4.2512 1.2544 1.2563.9141 2.2137 2.0855 2.7597 3.5502.8043 2.1639.369 4.1009-1.1474 5.8156-.1531.1734-.3265.3302-.5128.5184-.0701-.2629-.1292-.5018-.1974-.7407-.3441-1.1714-.8329-2.2653-1.6668-3.1776-.4842-.5322-1.2664-.8356-.5469-.808.6641.0231-.2389.0111-.3219 0 .8282.5691.1909.9067.3136 1.8706.261 2.0495-.3671 3.8131-1.7941 5.2935-.0867.0904-.2176.1476-.3403.1909-1.5035.5332-3.0171 1.0386-4.5123 1.5948-2.6693.9925-5.2464 2.186-7.6889 3.6572-.0332.0194-.0682.0378-.1042.0572-.2315-.1494-.3265-.3726-.3164-.6217.0129-.332.0664-.6641.1061-.9952.0037-.0397.0166-.0766.0194-.1153.0793-.5857-.1494-.7766-.6881-.5147-.2703.1319-.5184.3505-.713.582-.6217.7444-1.0072 1.6262-1.3771 2.5098-.1956.4667-.3505.9501-.5488 1.4158-.071.1698-.1845.3422-.3256.4612-2.115 1.7987-4.08521 3.7338-5.75471 5.9623-1.43152 1.9093-2.65182 3.9394-3.6443 6.1107-.02398.0572-.05349.1125-.08116.1688-.00738.012-.02122.0193-.0535.047-.3256-1.9028-.38924-3.7974-.19831-5.7113-.15219.5682-.32191 1.1336-.45381 1.7064-.54236 2.3096-.71115 4.6469-.54973 7.0137.0083.1199-.02214.249-.05811.3653-.7047 2.2118-1.19079 4.4725-1.39832 6.7831-.717609 8.0708 1.24428 15.4516 6.00834 22.017ZM5.69697 55.4689c1.4758 3.2274 3.32608 6.238 5.34333 9.1481.1061.1531.1549.3035.1642.4926.0452.9353.095 1.8678.1715 2.7994.0461.5479.1467 1.0939.2223 1.6372-5.38756-5.9281-7.97482-12.9077-7.89365-20.9517.09039.6244.14942 1.2074.26011 1.7792.34312 1.7765.98325 3.4571 1.73221 5.0952ZM25.492 31.6551c-.012.047-.011.0627-.0193.0756-.0388.0572-.0803.1144-.1218.1725-1.759 2.4655-3.1997 5.1044-4.2623 7.9444-.7628 2.0348-1.2978 4.1258-1.532 6.2915-.1633 1.5173-.1753 3.0337 0 4.551.0092.071.0083.1826-.0332.2131-.3441.2462-.6983.4787-1.0589.7203-.024-.0876-.0434-.1457-.0572-.2084-.5562-2.4987-.8569-5.0205-.7112-7.5865.0941-1.6437.3745-3.2477.986-4.7844.0176-.0443.025-.0913.0369-.1356-.1955.2795-.3624.5673-.5063.8671-1.1364 2.3622-1.5856 4.883-1.6751 7.473-.0802 2.3392.1568 4.6654.6097 6.9713-.3938.1411-.8347.0738-1.4721-.2398-.0194.0766-.0175.1734-.0618.2251-1.0008 1.1253-1.841 2.3566-2.4969 3.7107-.0166.0341-.0415.0609-.0701.1033-.4916-.5571-.9168-1.1336-1.1732-1.8374-.0784.2878-.1439.5719-.1614.8606-.0563.9417.1494 1.8429.4446 2.7265.0793.238.0544.4317-.0701.654-.4253-.4077-.5728-.9427-.7638-1.485-.1927.2564-.2582.5165-.2739.7914-.0378.7489.1457 1.4601.4307 2.1362.2232.5285-.0645.9685-.0922 1.5099-.1042-.1365-.1725-.2121-.2288-.2979-.7296-1.0764-1.48959-2.1325-2.17952-3.2348-1.63352-2.6112-2.96728-5.3654-3.88965-8.3133-.03413-.1163-.04796-.2657-.00738-.3764 1.54405-4.2475 3.90072-7.9933 7.03865-11.2446.0378-.0397.0848-.072.1513-.1292-.0037.0775-.0047.1163-.0093.155-.1319 1.0819-.2896 2.1639-.3828 3.2477-.1614 1.9019-.1291 3.8011.25 5.6809.2555 1.2609.6706 2.4655 1.4555 3.5087.5405.7139 1.2019 1.2839 2.0486 1.6141-.2038-.2029-.4252-.3892-.606-.6096-.5064-.6134-.8587-1.3163-1.1188-2.0643-.5507-1.5745-.6743-3.209-.6835-4.8609-.0083-1.6335.1347-3.2542.3625-4.8692.2426-1.7286.5368-3.4469 1.0303-5.1229.3228-1.0939.7139-2.1602 1.3263-3.1315.0858-.1346.2325-.2333.3515-.3486.071.1485.1798.2905.2075.4455.0812.499.2112.9777.0221 1.5072-.7434 2.0882-1.1548 4.2493-1.3466 6.4538-.0406.463-.0526.9279-.0784 1.3909.1153-.4169.1752-.8393.2619-1.2544.5728-2.792 1.8392-5.1994 3.9902-7.1032.202-.178.4326-.3339.6715-.4575 1.5275-.7988 3.1139-1.4629 4.7336-2.0495.2389-.0849.476-.1679.7342-.2564Zm47.1222-21.4729c.0037.1568-.0599.3192-.1134.4732-.5922 1.7378-.7813 3.5198-.6743 5.3433.0194.3265.0379.6641-.0203.9796-.3541 1.8908-1.3494 3.4976-2.3142 5.1662-.0258-.072-.036-.0849-.036-.0959-.107-2.7865-.0239-5.5638.5239-8.3079.2011-1.0026.4871-1.9803 1.0257-2.8648.2647-.4391.595-.8173 1.0497-1.07553.1411-.08025.2905-.12729.4031.00276.083.09962.1522.24997.1558.37907Zm1.1512 14.7755c-.44.3182-.9021.6171-1.3854.8615-1.7009.8551-3.5032 1.4638-5.2843 2.1206-.3468.1272-.6798.3099-.9897.5128-.6162.404-1.0746.9703-1.4721 1.5828-.19.2896-.3681.5885-.5535.8827.0056-.0987.036-.1854.06-.2749.2103-.7157.4492-1.426.6189-2.1528.2352-1.0137.6079-1.9609 1.1724-2.8298.3043-.4695.6447-.9187.9426-1.3956.1882-.2988.3524-.6235.4833-.9519.0775-.1973.0683-.4279.1006-.6429-.0323-.0156-.0627-.0313-.0959-.0461-.0941.0793-.202.1485-.2814.2408-.3274.3754-.6419.7637-.9786 1.1326-.0729.0821-.2352.1624-.3173.1329-.0784-.0286-.1623-.203-.1504-.3044.0416-.4068.0655-.8265.1928-1.2102.1753-.5285.4511-1.0238.6568-1.5468.1005-.2546.166-.5368.189-.8098.0111-.1292-.1143-.2694-.1761-.4031-.1098.0747-.2362.1346-.3266.2297-.1604.1687-.2877.3661-.4538.5322-.1632.1614-.3145.1346-.4086-.0711-.0664-.1439-.1346-.3209-.1116-.4667.0563-.3662.155-.7259.2491-1.0875.0867-.3283.2093-.653.2767-.9841.0461-.2242-.0111-.4465-.2463-.6153-.0655.096-.1374.1781-.1799.2749-.0922.1974-.166.404-.2499.6014-.1983.4556-.3727.927-.607 1.3642-.2075.3846-.4104.3505-.6327-.0231-.4307-.7305-.856-1.4665-1.3365-2.1639-.2647-.3827-.4179-.7766-.4594-1.2249-.0535-.5958-.083-1.1972-.1448-1.794-.024-.2223-.0839-.4538-.3274-.6641-.0517.2518-.095.4584-.1356.666-.06.3043-.1015.6143-.1854.9122-.0572.2103-.2269.2315-.3321.0443-.095-.1698-.1595-.3727-.1734-.5664-.0249-.3652.0083-.7323-.011-1.0985-.0083-.1661-.0683-.333-.131-.4907-.0258-.0674-.1162-.1126-.1771-.1679-.0397.0683-.095.131-.1171.2057-.0286.0876-.0323.1826-.0462.2758-.0396.2693-.0618.5451-.1254.8071-.0673.285-.2472.3329-.4234.1023-.1623-.2112-.2896-.4611-.3717-.7139-.1245-.3929-.1771-.8043-.2961-1.2009-.0553-.1854-.1817-.3551-.3007-.5128-.0452-.0572-.1734-.0941-.2453-.0729-.0526.0138-.1042.1347-.1061.2103-.0074.3025.0055.6069.0102.9104.0009.1503 0 .3007 0 .463-.0665-.0148-.0932-.0138-.1089-.024-.0378-.0258-.0756-.0572-.1061-.0913-.3117-.3311-.5202-.7158-.5866-1.1723-.0286-.202-.0387-.404-.0765-.6023-.0471-.2343-.1864-.3238-.4243-.2943-.25.0295-.4077.2112-.4336.5285-.0184.2067-.0036.4133-.0036.6512-.2851-.1457-.5369-.2794-.7933-.4058-2.6223-1.2978-5.3894-2.1021-8.293-2.44153-1.8752-.2186-3.7504-.22414-5.6099.15311-1.1244.22782-2.1953.59402-3.1241 1.29782-.1365.1014-.262.2195-.3929.3302 1.034-.5986 1.639-.8431 2.5725-1.0202 1.6999-.3265 3.4008-.2776 5.0979-.0313 2.9876.4344 5.8119 1.3761 8.4656 2.8243 2.0559 1.1216 3.9145 2.4968 5.4171 4.3167.1134.1346.2195.2758.3265.4141-3.0761-1.4693-6.5507 1.295-10.0262.0683 4.7631 2.4553 7.5837-.7075 10.2697 1.3393.6835.5202.8052 1.8622-.7563 1.6372-1.4906-.2131 2.245.5248 2.9147 4.4071-.0379.6337-.1273 1.2784-.2721 1.9379-.6411 2.9082-1.9961 5.477-3.8556 7.783-1.9148 2.376-4.3204 4.1442-7.022 5.5268-.0387.0046-.0821.0194-.1356.0406.0074-.0332.0065-.0489.012-.0572.0378-.0599.0766-.118.1153-.1771 1.2913-1.9194 2.353-3.9459 2.8677-6.2223.3542-1.5588.3966-3.1213-.096-4.6654-.5506-1.7239-1.6519-3.0364-3.0908-4.0879-1.6123-1.1788-3.434-1.9149-5.3332-2.4794-.4058-.1208-.8191-.2278-1.2784-.3541.0516.0553.0572.0701.0701.0747.0775.0332.1586.0636.2389.095 1.3264.5183 2.59 1.1511 3.7356 2.0061 1.6492 1.2259 2.863 2.7699 3.4128 4.7779.4851 1.7747.3772 3.5502-.0554 5.3166-.5598 2.2893-1.5966 4.3619-2.8473 6.3422-.2869.4529-.6272.7545-1.1419.9076-.6217.1845-1.2314.4234-1.9047.6605 1.9056-2.0449 1.9582-4.9227 1.5929-6.6116-.0055.0295-.0148.0489-.0157.0692-.0655 1.3761-.534 2.6158-1.3033 3.7466-1.1474 1.688-2.7016 2.9184-4.456 3.9192-.1356.0775-.3016.1024-.4529.1513.6346-.7315 1.1207-1.5284 1.4048-2.4415.2767-.8837.3727-2.2691.1891-2.7662-.2896.9657-.5912 1.5947-1.236 2.4166-1.1068 1.4094-2.3926 2.6297-3.8822 3.6443-.9981.6835-2.0449 1.2489-3.1702 1.6787-1.9896.7628-4.0649 1.2304-6.1292 1.7359-1.8134.4437-3.6259.9039-5.4254 1.4066-.9814.2749-1.9259.6798-2.7422 1.3199-.1458-.3246-.4197-1.4721-.4299-2.3834-.1189-10.7419 8.4287-16.4837 11.0335-19.4888.7582-.8753 1.1935-1.9481 1.5745-3.0328.1549-.4399.2877-.8864.4344-1.3429.024.0322.0489.0544.06.0774.7277 1.3974 1.1751 2.8243.8264 4.4422-.535 2.4747-1.5311 4.6847-3.4072 6.4372-.0203.0194-.0369.0443-.1015.1181.0922-.047.1245-.059.154-.0793 1.5432-.8892 2.9535-1.9462 4.1461-3.2781 2.0052-2.2359 3.0826-4.8527 3.2302-7.8577.0645-1.3089-.1153-2.6011-.2611-3.8934-.3901-3.4395-2.9018-6.2242-6.2786-7.046-.2536-.0618-.5119-.1494-.7406-.2702-.3247-.1725-.4133-.4548-.2906-.7961.0443-.1226.1098-.2416.1799-.3523.5986-.9316 1.3596-1.7018 2.2958-2.2986.4805-.30526.9601-.60965 1.4232-.94078 1.9001-1.35773 3.9431-2.41108 6.2029-3.03091.9326-.2555 1.8752-.48149 2.8557-.39571.3062.02768.6051.14113.9104.1771.1273.0166.2647-.07287.3994-.11345-.0757-.08486-.1356-.19739-.2288-.24996-.5903-.33944-1.2424-.44459-1.9093-.46673-.9823-.0332-1.9388.15312-2.8953.34774-.0959.01937-.1965.01937-.2952.02767.7831-.67702 1.6714-1.11423 2.6325-1.40293 1.5828-.48056 3.1988-.58847 4.836-.45104.5239.04427 1.0561.06549 1.5385.33943.4741.26749.9731.49163 1.4629.7296.1061.05165.2241.07748.3376.1153.0175-.01937.0332-.03597.0507-.05534-.0516-.13283-.0941-.26934-.1596-.39478-.1761-.34681-.3689-.68533-.5479-1.03214-.0322-.06549-.0166-.15957-.0212-.23981.0738-.00369.1568-.03137.2205-.00923.3763.12544.76.23613 1.1179.404.5119.24351 1.045.32652 1.6031.36434.76.05258 1.5219.12452 2.2773.23244 1.1087.15957 1.9536.73144 2.5015 1.72299.1291.23152.2647.45842.404.68441.0498.08024.1181.14849.178.22136.0258-.01199.0563-.02213.083-.03689-.1734-.59032-.3459-1.17972-.5266-1.80232.5737.13097 1.1723.52852 1.6455 1.08655.2407.27856.4538.57649.6917.85505.0951.11068.2233.19185.3349.28777.0313-.01752.0636-.03136.0959-.0498-.0461-.39478-.0932-.78863-.1374-1.18525.023-.0083.0489-.01753.0728-.02399.3579.21768.7112.44182 1.0691.6595 1.2157.73237 2.3548 1.55697 3.2089 2.71916.1171.16049.2048.13743.2666-.05719.0756-.24443.1263-.49715.2103-.73974.024-.07379.1273-.17433.1863-.17064.0821.00646.1965.08762.2232.16234.0572.1568.0812.32928.0922.49992.0231.34128.0148.6844.0508 1.02384.011.10422.1226.20112.1881.29792.0877-.0775.2085-.1384.2528-.23612.1356-.27948.237-.57557.3634-.86058.1162-.2638.1854-.26841.3542-.04427.2213.29608.4704.53498.8882.50546.3874-.02951.4363-.00092.5802.35973.2463.61518.4556 1.24248.7084 1.85398.1199.2915.3034.5571.4482.8375.036.0664.0665.1614.0489.2269-.5137 1.6557-.6549 3.3611-.6724 5.0804-.0157 1.5911.0166 3.1822-.0378 4.7706-.0415 1.2424-.25 2.4544-1.1769 3.4118.1282-.0406.2499-.0867.3652-.1457.5968-.3099 1.0866-.7554 1.5136-1.2683.9473-1.1327 1.569-2.4443 2.1215-3.8011.4418-1.0865.8873-2.1722 1.3513-3.2495.1153-.2675.3071-.5036.4787-.7462.0415-.0572.1642-.1227.2112-.0987.0692.0304.1356.1337.1457.2121.024.1753.024.3598.0157.535-.0396.8883-.1134 1.7756.0397 2.6611.0221.1356.0609.2877.0267.4123-.3329 1.2147-.7655 2.388-1.5154 3.4201-.0222.0323-.0378.072-.0849.1633.5331-.238.8919-.5903 1.1825-1.0045.2905-.416.5451-.8578.831-1.3171.1218.4925.238.9666.3542 1.4407.1651.6881-.0415 1.2526-.5967 1.6575Zm.6032 7.118c-1.3642 1.2876-2.9793 2.1962-4.6764 2.9673-2.2967 1.0441-4.7032 1.7681-7.1567 2.3382-.8763.2038-1.759.38-2.697.5811.3772-.4677.7111-.8864 1.0551-1.3006.0323-.0396.1052-.0572.1642-.0655 1.5367-.1595 3.0153-.5571 4.4385-1.1492 3.2938-1.367 6.1144-3.4331 8.6279-5.9383.023-.023.0396-.0526.0572-.0784-.0858.0258-.1495.0683-.214.1125-2.1206 1.4722-4.302 2.8446-6.595 4.0327-1.4684.7563-2.9645 1.4527-4.5731 1.8641-.3791.0968-.7665.1614-1.2102.2518.0609-.1052.0858-.1439.1079-.1845.5046-.8836 1.0608-1.746 1.5007-2.6629.274-.5765.6595-.9989 1.1465-1.3706 1.8263-1.39 3.839-2.4628 5.8922-3.4672.0193-.0083.0415-.0056.1079-.0176-.7813 1.2397-1.5348 2.4462-2.8806 3.126.3477-.0572.6936-.1153 1.0266-.2168 1.0331-.3164 1.9019-.9251 2.7182-1.6077.9981-.8329 1.9638-1.7101 2.9765-2.531.5212-.4243 1.0792-.8338 1.6815-1.1271.6337-.3053 1.3356-.463 2.0117-.6724.1734-.0572.3588-.0664.6125-.1107-.083.428-.1181.8034-.2306 1.152-.772 2.3567-2.0947 4.373-3.8915 6.0748ZM61.9322 50.3055c-.499.2776-1.0303.5266-1.5745.6927-1.1151.3376-2.2754.3431-3.4321.3403-.8181-.0009-1.6372-.012-2.4544-.0027-.2057.0027-.4096.0673-.6125.1042 0 .0369-.0018.0747-.0037.1134.1762.0674.3477.1495.5276.2011.57.1624 1.1428.3081 1.711.4667.1116.0323.2131.096.3219.1458-.0037.0221-.0083.0452-.012.0664-.0738.0295-.1466.071-.225.0885-1.1438.2279-2.282.5046-3.4368.6678-1.9536.2777-3.8906.6162-5.7823 1.1917-.1615.048-.3386.072-.5046.0609-1.913-.1337-3.8251-.2702-5.7381-.4104-2.2118-.1615-4.4246-.1827-6.6328.0507-2.5097.2647-4.9383.8606-7.2876 1.7682-3.3768 1.3051-6.4373 3.1665-9.3132 5.3461-.0489.0369-.096.0811-.143.1208.095-.0185.1669-.0572.237-.0996 2.627-1.5681 5.3351-2.9673 8.1972-4.0575 2.4267-.9233 4.9181-1.5902 7.4924-1.9315 1.8604-.2463 3.7273-.3025 5.6025-.2905 2.0947.011 4.194 0 6.2888-.001.0267 0 .0544.0037.0848.0065-.0083.0184-.0092.0277-.0129.0314-.0498.0184-.0996.0405-.1503.0599-1.8734.7324-3.6499 1.6474-5.2714 2.8418-.4898.3635-1.0165.6356-1.5782.8468-.4363.1651-.8753.3265-1.3208.4667-2.2866.7222-4.6534 1.0764-7.0073 1.5016-1.9398.3496-3.8767.7084-5.799 1.1327-1.7516.3865-3.4432.9796-5.0158 1.8733-2.6989 1.533-4.2863 3.8279-4.7189 6.9095-.0682.4843-.107.975-.1559 1.4094-.0941-.1752-.1964-.3874-.3173-.5903-1.0229-1.7202-1.7386-3.5521-1.9619-5.5527-.3007-2.7035.4705-5.0352 2.4287-6.951.0802-.0784.1346-.1835.1872-.2878.2822-.5718.5156-1.1723.843-1.7137.9363-1.5358 2.2571-2.6925 3.7449-3.6702 1.9757-1.2959 4.1331-2.2017 6.3607-2.9534 3.5133-1.188 7.1281-1.9637 10.7604-2.662 2.9599-.5682 5.9253-1.1142 8.8834-1.6888 2.3077-.4465 4.5519-1.0792 6.6761-2.1261 2.6647-1.3116 5.1312-2.887 7.2203-5.0168.0692-.0719.202-.1107.3072-.1144 1.3974-.0396 2.7865-.1706 4.159-.4298 3.8444-.7287 7.3651-2.2257 10.5897-4.4348.0535-.0341.1089-.0599.1965-.1134-.0194.1153-.0277.1844-.0443.2509-.2712 1.2018-.6235 2.3806-1.081 3.5234-2.2395 5.5933-5.965 9.8869-11.2327 12.8192Zm30.9226 29.2743c-.0932.9186-.2841 1.829-.4852 2.733-.3117 1.39-1.1622 2.3096-2.5383 2.7256-.6162.1863-1.2489.2601-1.8918.262-1.2609.0027-2.496-.2002-3.7163-.5019-1.0164-.2545-1.9978-.5967-2.8787-1.1778-.8412-.5544-1.4666-1.2747-1.7101-2.2792-.1494-.6281-.106-1.2489-.0046-1.878.0406-.2499.1485-.3597.3782-.4492 2.008-.8015 3.6111-2.0734 4.5731-4.0547.1282-.262.3109-.3948.5903-.4234.9602-.1061 1.902-.071 2.7792.3948.5626.2988 1.1243.2647 1.6805-.0055.2288-.1116.4511-.25.654-.404.2527-.1928.4824-.4169.7619-.6623.023.0406.0405.0775.0645.107 1.391 1.6215 1.9527 3.5087 1.7433 5.6136Zm-14.8511 4.1027c.1549.1005.2933.2306.4316.3579 1.1964 1.1151 2.5753 1.925 4.1028 2.4987 1.3641.5119 2.7828.7416 4.2263.819 1.0681.0572 2.1436.048 3.1812-.2352.7112-.1937 1.3928-.4861 2.0948-.7167.1494-.0488.3754-.083.4768-.0055.1716.1319.0434.3413-.0193.5165-.0037.0074-.0093.0139-.013.0194-.499.9528-1.1529 1.7765-2.0375 2.4019-1.5938 1.1262-3.3851 1.3485-5.264 1.1336-.308-.0351-.5746.0212-.8264.1642-.1181.0673-.1909.213-.285.3246.0175.0194.0341.0415.0507.0609.0664-.0074.1337-.0194.2011-.0203.3486-.0111.7037-.0646 1.0441-.0194 1.0976.1458 1.6215 1.3569.9897 2.2497-.2112.3016-.487.5184-.8799.4695-.404-.0535-.6051-.3533-.7425-.701-.0333-.0849-.0471-.1808-.0563-.274-.0415-.3514-.0664-.4003-.4289-.3883-.3404.0102-.6789.0628-1.0183.1144-.4215.059-.6936-.0959-.8265-.5027-.107-.3284-.0747-.6604.0877-.9519.1734-.3191.3957-.6097.5857-.9021-.5101-.213-1.0718-.4058-1.5948-.677-1.9988-1.0358-3.3528-2.6038-3.8629-4.8332-.0526-.2177-.0729-.4483-.0655-.6724.0111-.3201.1882-.405.4483-.2306Zm1.0432-2.7902c.1494.4713.249.9491.4483 1.378.4648.9925 1.2913 1.6363 2.257 2.0827 2.2912 1.0534 4.7078 1.5247 7.2231 1.3107 1.5238-.1291 2.7865-.7655 3.494-2.2229.0027-.0055.0129-.0092.0396-.0313.4658.2158.7259.5755.7886 1.081.0572.4649-.1411.8246-.5322 1.0321-.5054.2693-1.021.547-1.5652.7112-2.2986.6964-4.623.6798-6.9455.1171-1.7691-.428-3.4017-1.1539-4.8249-2.3041-.5562-.4483-1.0626-.9427-1.379-1.5975-.0784-.1624-.1513-.3579-.1383-.5295.0415-.5359.6345-1.0303 1.1345-1.0275ZM6.04471 69.1883c-1.86596-3.2458-2.83722-6.6909-2.8394-7.2194-.0052-1.652.12301-3.2984.37021-4.9384.05718-.38.13282-.7573.19831-1.1364.0701.0692.09316.1393.11437.2113.27579.9159.51561 1.8447.83106 2.7468 1.65843 4.7272 4.18019 8.9673 7.30524 12.8625.1134.142.2112.3099.2674.4824.6789 2.091 1.6529 3.9883 2.9018 5.7076-1.4011-.5967-2.9958-.8117-4.8968-2.9986 2.3345 4.5021 7.865 6.286 7.865 6.286 3.0771 2.7533 6.6586 4.5731 10.6258 5.6624.321.0876.6438.1577.9675.2352-.0701-.0682-.1494-.0959-.2287-.1273-2.9525-1.0561-5.6726-2.5282-8.1353-4.4698-3.0651-2.4166-5.383-5.394-6.7684-9.0651-.1476-.3947-.2177-.7628-.0655-1.1705.1033-.2767.1568-.5709.2426-.8541.6512-2.1279 1.6704-4.0409 3.3095-5.585 1.568-1.4794 3.4524-2.3732 5.4964-2.9765 2.448-.7176 4.9771-.9823 7.4943-1.3125 1.4601-.19 2.9128-.4206 4.3683-.6429.3911-.0581.7776-.1549 1.1936-.2407-.0314.0516-.0406.0747-.0572.0931-1.1364 1.2757-2.0827 2.6768-2.8354 4.2134-.0452.095-.1494.1891-.25.2205-.6724.2121-1.3392.4639-2.0292.6023-1.0229.2038-2.0698.2822-3.0927.4833-5.4853 1.0884-7.1761 4.028-7.1512 4.0013 1.6659-1.7691 4.3306-2.2681 5.0353-2.5135 1.6409-.5709 3.3427-.7259 5.0657-.7093.5045.0074 1.0072.0369 1.5256.0572-1.5469 5.0491-1.3439 9.9708.7517 14.7921.0018-.0913-.0194-.178-.0406-.2647-.82-3.114-1.152-6.2639-.6835-9.47.5654-3.8934 2.258-7.2102 5.0851-9.9432 2.1187-2.0477 4.61-3.5216 7.283-4.7097 2.5393-1.1289 5.2078-1.8272 7.8992-2.4765 2.0256-.488 4.0594-.9667 6.0591-1.5561 2.6786-.7849 5.1035-2.0744 7.1687-3.98.321-.2952.6429-.5968.9076-.9418 1.7405-2.2524 3.8629-4.016 6.4742-5.1653.1651-.5525.4528-1.1354.903-1.7442.6373-.8541 1.4269-1.5578 2.2773-2.1897.2417-.178.5608-.2804.8615-.3394.3265-.0673.5221.0904.6346.4068.0295.0894.0507.1789.0673.2702.1734.06.3478.1541.5184.2869.1171.0904.2306.1881.333.2905.4805.4833.8181 1.0589 1.0902 1.676.0591.1337.1384.1863.2767.2038.3238.0424.6485.0876.9685.1494 5.1958 1.0276 8.9766 4.9753 9.637 10.6516.0581.5119.0553 1.0423.2084 1.5219.1965.6097.5203 1.1779.7896 1.7645.237.5156.4962 1.0211.7019 1.5505.2112.5415.2371 1.106.0729 1.6751-.0572.1955-.1707.2472-.3238.1522-.213-.1347-.4058-.3035-.6106-.4557-.2481-.1854-.4796-.3975-.748-.5442-.2177-.1208-.4667-.0959-.6623.1282.0452.0341.083.0609.1162.0923.535.4768 1.0718.9491 1.5976 1.4352.0627.0572.1079.1734.1024.2628-.0471.7536-.297 1.4371-.832 1.9795-.69.6982-1.5007 1.0708-2.5079.8347-.025.3754-.0517.44-.2666.5562-1.402.7591-2.8861 1.2065-4.4929 1.176-1.1806-.0203-2.2469.3542-3.2624.9224-.3155.1762-.654.3348-1.0017.4271-1.0977.2914-2.2248.3754-3.3584.4049-.0931.0018-.1835.0074-.2767.012.0581.0655.1162.0857.1734.0987.9039.2139 1.8208.2416 2.7441.1743.2988-.0212.6355-.0858.8956.0194.7619.3099 1.5007.6807 2.234 1.0579.2057.1061.3874.1568.5958.0793.4658-.1743.9335-.3468 1.3873-.5488.9648-.4289 1.9517-.6871 3.018-.5405.582.0793 1.1511.2076 1.6593.5184.3284.2029.5894.4612.6143.8818.0056.059.0581.1245.1061.1688.1365.1263.2878.2398.4252.3652.4059.3745.5784.8394.5276 1.3882-.0433.4612-.1798.5378-.5811.3339-.1937-.0978-.3957-.178-.5986-.0231.2573.1642.5101.3118.7499.4778.3616.2472.4889.6033.4769 1.0322-.0379 1.1935-1.4454 2.2496-2.6537 1.9831-.3994-.0876-.7545-.2454-.9731-.6226-.0286-.0498-.1107-.1024-.166-.0987-.3155.0175-.6374.0157-.9418.0839-.558.1264-1.1096.2601-1.6842.1513-.2648-.0507-.5258-.1236-.7997-.1863-.214.7452-.5664 1.4075-1.0377 2.008-1.093 1.3891-2.5292 2.269-4.1867 2.8123-2.1491.7056-4.3582.7831-6.5682.4658-3.196-.4566-5.4623-2.1916-6.6835-5.2013-.3025-.7443-.4584-1.5477-.6862-2.3253-.3653-1.2507-.856-2.4535-1.5044-3.5899-1.0451-1.8244-2.4167-3.326-4.2955-4.3167-2.1104-1.1123-4.3536-1.3346-6.6771-.9214-.4409.0784-.8735.1918-1.3623.3016.8495.0507 1.6307.0683 2.4046.1467 2.1547.2167 4.1747.8642 6.0111 2.0264 2.1823 1.3845 3.8159 3.1997 4.4984 5.775.3653 1.3753.8763 2.7099 1.5164 3.9883.4252.856.8956 1.676 1.5514 2.3798 1.0921 1.1686 2.4628 1.829 3.9736 2.2542.4649.1301.9261.274 1.3845.4216.2269.0738.3689.2342.4584.4639.2527.6568.3256 1.3273.1891 2.0182-.2112 1.0865-.7434 2.0089-1.4573 2.8335-.6143.7102-1.3836 1.2305-2.1529 1.7497-.3735.25-.7379.5221-1.0791.8163-.2952.2509-.4751.5959-.4566.9898.0323.7037.0738.8153.7748.582.1097-.0369.2186-.0803.3265-.1273.5728-.2463 1.1419-.4972 1.7184-.7379 1.1041-.4621 2.2506-.6328 3.4284-.3496 1.3043.3118 2.2248 1.0783 2.639 2.388.0848.2684.1051.5535-.0379.7942-.0701.119-.2481.2361-.38.2398-.119.0037-.2592-.1319-.3569-.238-.0591-.0664-.0572-.19-.0849-.2877-.1347-.5055-.3551-.9519-.8514-1.1973-.095-.047-.201-.059-.3025-.0895.6614.6863 1.0183 1.4629.9713 2.3991-.036.7112-.594 1.1742-1.3098 1.1336-.2085-.012-.3551-.1097-.3782-.3126-.0276-.2463-.0175-.4954-.0221-.7435-.0074-.2951.0148-.5958-.0268-.8855-.0654-.475-.3588-.784-.8144-.9306-.2205-.0701-.4326-.0323-.6374.0719.2878.059.5627.1457.7084.4151.1384.2582.2813.5276.3514.8089.1495.6069.0775 1.1926-.4805 1.5653-.25.1669-.5903.2361-.8984.2785-.6623.0923-1.296-.095-1.9361-.2426-.3837-.0894-.7812-.1485-1.1723-.1494-.3699-.0009-.7434.0775-1.1096.143-2.2303.4021-4.4717.2315-6.7426.2048-2.4563-.0305-4.9125-.0157-7.3688-.0176-4.397 0-8.7949-.0018-13.1955-.0018-1.8161 0-3.6323.0184-5.4485.0064-2.5051-.0156-4.9817-.2979-7.4038-.9334-9.2265-2.4129-16.1314-7.4076-20.68243-15.78-2.00616-3.6931-3.15175-7.6437-3.55482-11.7916-.04797-.4796 2.70809 4.6515 2.68226 4.147Z"></path>
  <path fill="#e65270" d="M78.1819 47.4377c-.7748-1.6492-.784-2.3474.072-3.908.6456-1.1788 2.3622-.1301 2.1297-1.4463-.0977-1.1438-1.2959-2.4-1.5182-2.6731-.273-.3237-.4252-.6419-.8283-.5598-.368.0756-.7176.2536-1.0155.4741-1.0488.7794-2.02 1.6482-2.8086 2.7007-1.4233 1.8991-.8366 3.0512.8292 4.5657.7056.6374 3.2227 1.0229 3.1397.8467Z"></path>
  <path fill="#2b2b2b" d="M76.6384 41.1736c.4104-.4483 1.0505-.8818 1.7165-1.3264.3542-.2343-.701 2.6445-1.0072 3.4128-1.0073 2.5172.3117 4.0769-.0508 3.8841-.7997-.4243-1.9406-1.9065-2.0191-2.8224-.0876-.9907.6817-2.4047 1.3606-3.1481Z" opacity=".2"></path>
  <path fill="#0d0d0d" d="M77.8626 47.2839c-.7748-1.6492-.7831-2.3466.0738-3.9081.6438-1.1779.9427-2.365.7112-3.6831-.0249-.1466-.0545-.2961-.1024-.4381-.1365-.3957-.3791-.5894-.7822-.5064-.3689.0757-.7656.2002-1.0607.4197-1.0488.7794-2.0209 1.6483-2.8086 2.7007-1.0921 1.4564-.9731 2.4508-.1449 3.5548.2371.3155.3828.3063.6881.3634.3948.0748.4751-.475.3496-.6973-.2887-.511-.4787-1.0247-.5147-1.4287-.0885-.9925.4667-2.0698 1.1456-2.8123.6291-.6881 1.902-1.7562 2.769-2.0154.2103.8034-.2371 2.4065-.5193 3.1849-.345.951-1.39 2.686-1.1272 3.8168 0 0 .3671 1.046.7582 1.3116.3893.2647.5645.1375.5645.1375Z"></path>
  <path fill="#8b4fba" d="M30.8387 66.3209c-.106.0056-.2047-.0055-.285-.0488.1005-.0065.1956.0129.285.0488Z" opacity=".2"></path>
  <path fill="#430a1d" d="M78.5199 80.1482c.9048-1.3743 1.9222-1.8392 3.0715-2.9212 1.093-1.0266 1.9323-2.2653 3.0198-3.2735.8532.1781 1.8106.0342 2.686.0784.6253 1.5441 3.6618.0747 3.9394-.9214l.4031.6041c.8753 1.724-2.2644 1.8393-4.052 1.6603-1.2535-.1245-6.6687 1.2987-6.4907 8.282-.6088.9362-2.0458.0221-2.0477 1.2424-.0009 1.2489.0194 3.4516 1.0976 4.2466-.308 1.0894-1.3817-.0627-1.6768-.499-.6632-.9767-1.6087-2.7062-1.8236-3.8638-.3634-1.9775.8837-3.1324 1.8734-4.6349Z" opacity=".2"></path>
  <defs>
    <linearGradient id="a" x1="1378.35" x2="-1168.68" y1="-9663.87" y2="2221.59" gradientUnits="userSpaceOnUse">
      <stop offset=".384" stop-color="#faa100"></stop>
      <stop offset=".658" stop-color="#bf73f2"></stop>
      <stop offset=".665" stop-color="#c370e6"></stop>
      <stop offset=".685" stop-color="#cc68c7"></stop>
      <stop offset=".708" stop-color="#d461ab"></stop>
      <stop offset=".734" stop-color="#db5b95"></stop>
      <stop offset=".764" stop-color="#e05784"></stop>
      <stop offset=".802" stop-color="#e35479"></stop>
      <stop offset=".854" stop-color="#e55272"></stop>
      <stop offset="1" stop-color="#e65270"></stop>
    </linearGradient>
    <linearGradient id="b" x1="2973.04" x2="178.192" y1="-10095.4" y2="2946.84" gradientUnits="userSpaceOnUse">
      <stop offset=".384" stop-color="#faa100"></stop>
      <stop offset=".658" stop-color="#bf73f2"></stop>
      <stop offset=".665" stop-color="#c370e6"></stop>
      <stop offset=".685" stop-color="#cc68c7"></stop>
      <stop offset=".708" stop-color="#d461ab"></stop>
      <stop offset=".734" stop-color="#db5b95"></stop>
      <stop offset=".764" stop-color="#e05784"></stop>
      <stop offset=".802" stop-color="#e35479"></stop>
      <stop offset=".854" stop-color="#e55272"></stop>
      <stop offset="1" stop-color="#e65270"></stop>
    </linearGradient>
    <linearGradient id="c" x1="2853.66" x2="2721.62" y1="-5317.6" y2="824.486" gradientUnits="userSpaceOnUse">
      <stop stop-color="#faa7b5"></stop>
      <stop offset=".384" stop-color="#faa100"></stop>
      <stop offset=".732" stop-color="#bf73f2"></stop>
    </linearGradient>
    <linearGradient id="d" x1="196.899" x2="1781.69" y1="-4579.36" y2="-1849.07" gradientUnits="userSpaceOnUse">
      <stop stop-color="#f6e8a0"></stop>
      <stop offset="1" stop-color="#e65271"></stop>
    </linearGradient>
    <linearGradient id="e" x1="322.333" x2="1684.35" y1="-2894.56" y2="-548.644" gradientUnits="userSpaceOnUse">
      <stop stop-color="#f6e8a0"></stop>
      <stop offset="1" stop-color="#e65271"></stop>
    </linearGradient>
    <linearGradient id="f" x1="494.256" x2="308.863" y1="-3151.87" y2="83.142" gradientUnits="userSpaceOnUse">
      <stop stop-color="#f6e8a0"></stop>
      <stop offset="1" stop-color="#e65271"></stop>
    </linearGradient>
    <linearGradient id="g" x1="1079.34" x2="31.473" y1="534.224" y2="-4108.69" gradientUnits="userSpaceOnUse">
      <stop stop-color="#e65271"></stop>
      <stop offset=".384" stop-color="#faa100"></stop>
    </linearGradient>
    <linearGradient id="h" x1="-579.258" x2="2997.75" y1="-2874.07" y2="172.851" gradientUnits="userSpaceOnUse">
      <stop stop-color="#f6e8a0"></stop>
      <stop offset="1" stop-color="#e65271"></stop>
    </linearGradient>
    <linearGradient id="i" x1="2157.15" x2="550.538" y1="-2220.18" y2="-1783.25" gradientUnits="userSpaceOnUse">
      <stop stop-color="#faa7b5"></stop>
      <stop offset=".384" stop-color="#faa100"></stop>
      <stop offset=".732" stop-color="#bf73f2"></stop>
    </linearGradient>
    <linearGradient id="j" x1="15444.2" x2="-143.813" y1="-4423.26" y2="3934.65" gradientUnits="userSpaceOnUse">
      <stop stop-color="#faa7b5"></stop>
      <stop offset=".384" stop-color="#faa100"></stop>
      <stop offset=".732" stop-color="#bf73f2"></stop>
    </linearGradient>
    <linearGradient id="n" x1="1300.56" x2="510.869" y1="-1335.97" y2="443.703" gradientUnits="userSpaceOnUse">
      <stop offset=".004" stop-color="#faa7b5"></stop>
      <stop offset=".384" stop-color="#faa100"></stop>
    </linearGradient>
    <linearGradient id="o" x1="766.11" x2="-56.543" y1="-5185.43" y2="1066.1" gradientUnits="userSpaceOnUse">
      <stop stop-color="#faa7b5"></stop>
      <stop offset=".384" stop-color="#faa100"></stop>
      <stop offset=".732" stop-color="#bf73f2"></stop>
    </linearGradient>
    <linearGradient id="p" x1="673.645" x2="-147.708" y1="-6176.63" y2="65.497" gradientUnits="userSpaceOnUse">
      <stop stop-color="#faa7b5"></stop>
      <stop offset=".384" stop-color="#faa100"></stop>
      <stop offset=".732" stop-color="#bf73f2"></stop>
    </linearGradient>
    <linearGradient id="q" x1="359.885" x2="731.581" y1="-4088.76" y2="287.434" gradientUnits="userSpaceOnUse">
      <stop stop-color="#faa7b5"></stop>
      <stop offset=".384" stop-color="#faa100"></stop>
      <stop offset=".732" stop-color="#bf73f2"></stop>
    </linearGradient>
    <linearGradient id="r" x1="232.844" x2="66.464" y1="-3103.41" y2="4636.51" gradientUnits="userSpaceOnUse">
      <stop stop-color="#faa7b5"></stop>
      <stop offset=".384" stop-color="#faa100"></stop>
      <stop offset=".732" stop-color="#bf73f2"></stop>
    </linearGradient>
    <linearGradient id="s" x1="453.877" x2="41.76" y1="-453.965" y2="226.068" gradientUnits="userSpaceOnUse">
      <stop stop-color="#faa7b5"></stop>
      <stop offset=".384" stop-color="#faa100"></stop>
      <stop offset=".732" stop-color="#bf73f2"></stop>
    </linearGradient>
    <radialGradient id="k" cx="0" cy="0" r="1" gradientTransform="matrix(-628.20491 -705.9495 340.59772 -303.08848 -442.81 -235.265)" gradientUnits="userSpaceOnUse">
      <stop offset=".009" stop-color="#ffffff"></stop>
      <stop offset="1" stop-color="#ffffff" stop-opacity="0"></stop>
    </radialGradient>
    <radialGradient id="l" cx="0" cy="0" r="1" gradientTransform="rotate(180 -324.17 266.456) scale(1026.2)" gradientUnits="userSpaceOnUse">
      <stop offset=".009" stop-color="#ffffff"></stop>
      <stop offset="1" stop-color="#ffffff" stop-opacity="0"></stop>
    </radialGradient>
    <radialGradient id="m" cx="0" cy="0" r="1" gradientTransform="rotate(180 -166.214 342.635) scale(1026.24)" gradientUnits="userSpaceOnUse">
      <stop offset=".009" stop-color="#ffffff"></stop>
      <stop offset="1" stop-color="#ffffff" stop-opacity="0"></stop>
    </radialGradient>
  </defs>
</svg>